<svg xmlns="http://www.w3.org/2000/svg" viewBox="0 0 399.2 399.26"><defs><style>.cls-1{fill:#919191;}.cls-2{fill:#fafbfb;}</style></defs><title>my-little-montessorian-bg-texture-seamless-leaves</title><g id="Layer_2" data-name="Layer 2"><g id="Layer_1-2" data-name="Layer 1"><path d="M21,132.75c-7.83,3.07-14.53.24-21-4v-7c7.93-1.25,14.38,1.68,20,7.07Z"/><path d="M185.63,0c3.37,3.78,7.06,7.28,8.11,12.63.59,3-.05,3.87-3.11,3.28C183.19,14.47,177,8,175.65,0Z"/><path d="M0,321.41c7.93-1.25,14.38,1.68,20,7.07l1,3.9c-7.83,3.07-14.53.25-21-4Z"/><path d="M385.23,0c3.37,3.78,7.06,7.28,8.11,12.63.59,3,0,3.87-3.11,3.28C382.79,14.47,376.59,8,375.25,0Z"/><path d="M73.85,0C73,8.61,66,14.89,56,15.84c-.06-1.65-.11-3.3-.16-4.94a48.36,48.36,0,0,1,8-10.9Z"/><path d="M273.45,0c-.82,8.61-7.9,14.89-17.87,15.84-.06-1.65-.11-3.3-.16-4.94A48.05,48.05,0,0,1,263.47,0Z"/><path d="M0,92.83c4.94-2.86,10-5.1,16-4.1,1.44.24,3.39.08,3.91,1.56s-1.06,2.67-2,3.76C13.11,99.42,7.09,101.54,0,100.81Z"/><path class="cls-1" d="M55.82,10.9c0,1.64.1,3.29.16,4.94-9.84-.6-15.74-5.5-19-15.84h10C51.26,2.5,52.63,7.44,55.82,10.9Z"/><path class="cls-1" d="M255.42,10.9c.05,1.64.1,3.29.16,4.94-9.84-.6-15.74-5.5-19.05-15.84h10C250.86,2.5,252.23,7.44,255.42,10.9Z"/><path d="M0,292.46c4.94-2.85,10-5.1,16-4.1,1.44.25,3.39.08,3.91,1.56s-1.06,2.67-2,3.76c-4.76,5.38-10.78,7.5-17.87,6.77Z"/><path class="cls-1" d="M174.65,0c-1.47,8-6.26,12.93-13.82,15.4-1.38.45-3.23,1.42-4.13.1-.64-.94-.13-2.83.18-4.23,1.05-4.8,4.81-7.78,7.79-11.27Z"/><path class="cls-1" d="M374.25,0c-1.47,8-6.26,12.93-13.82,15.4-1.38.45-3.23,1.42-4.13.1-.64-.94-.13-2.83.18-4.23,1-4.8,4.81-7.78,7.79-11.27Z"/><path class="cls-1" d="M0,176.67c4.94-2.83,10-5,16-4.17,1.49.22,3.45.09,4.09,1.38.84,1.71-1,3-2,4.11-4.78,5.45-11.11,6.87-18,6.67Z"/><path class="cls-1" d="M0,376.31c4.94-2.84,10-5,16-4.17,1.49.21,3.45.08,4.09,1.37.84,1.71-1,2.95-2,4.11-4.78,5.45-11.11,6.87-18,6.67Z"/><path class="cls-1" d="M0,261.52a23.41,23.41,0,0,1,16.61-2.91c1.23.23,2.83.37,3.26,1.78s-.87,2.4-1.77,3.29c-5,5-11.2,6.56-18.1,5.82Z"/><path class="cls-1" d="M0,61.89A23.36,23.36,0,0,1,16.61,59c1.23.23,2.83.37,3.26,1.78s-.87,2.4-1.77,3.29c-5,5-11.2,6.56-18.1,5.82Z"/><path d="M108.78,0C110.7,5.39,113,10.65,111,16.66c-.88,2.68-1.83,2.67-3.7,1.12C101.71,13.15,98.89,7.37,99.8,0Z"/><path d="M308.38,0c1.92,5.39,4.23,10.65,2.25,16.66-.88,2.68-1.83,2.67-3.7,1.12C301.31,13.15,298.49,7.37,299.4,0Z"/><path class="cls-1" d="M399.2,355.34c-6.77-.73-13.92-9-13.88-15.86,0-2.55,1.38-2.06,2.95-1.71,4.38,1,7.74,3.65,10.93,6.6Z"/><path class="cls-1" d="M399.2,155.71c-6.77-.73-13.92-9-13.88-15.86,0-2.55,1.38-2.06,2.95-1.71,4.38,1,7.74,3.65,10.93,6.59Z"/><path class="cls-1" d="M399.2,42.92c-6.68-2.67-11.34-7.11-13.36-14.27-1.17-4.1.57-4.22,3.65-3.45a22.31,22.31,0,0,1,9.71,5.74Z"/><path class="cls-1" d="M399.2,242.55c-6.68-2.67-11.34-7.11-13.36-14.27-1.17-4.1.57-4.22,3.65-3.45a22.31,22.31,0,0,1,9.71,5.74Z"/><path d="M149.7,0c.69,1.12,1.48,2.2,2.07,3.38,1.29,2.63,3.71,6.18,1.6,8.1s-5.62-.53-8.22-2A18.48,18.48,0,0,1,136.73,0Z"/><path d="M349.3,0c.69,1.12,1.48,2.2,2.07,3.38,1.29,2.63,3.71,6.18,1.59,8.1-2,1.78-5.61-.53-8.21-2A18.54,18.54,0,0,1,336.32,0Z"/><path class="cls-1" d="M78.84,399.26c1.93-4.71,9.16-8.41,15.46-7.73,2.26.25,4.6.51,6.58,1.86.78,2.48-1.84,3.76-2.08,5.87Z"/><path class="cls-1" d="M278.44,399.26c1.93-4.71,9.16-8.41,15.46-7.73,2.26.25,4.6.51,6.58,1.86.77,2.48-1.84,3.76-2.08,5.87Z"/><path class="cls-1" d="M132.73,0c-1.29,5.8-9.15,12.08-14.69,11.92-2.21-.06-1.77-1.24-1.58-2.62a19.75,19.75,0,0,1,4.3-9.3Z"/><path class="cls-1" d="M332.33,0c-1.29,5.8-9.15,12.08-14.69,11.92-2.22-.06-1.77-1.24-1.58-2.62a19.75,19.75,0,0,1,4.3-9.3Z"/><path class="cls-1" d="M11.86,15.07C7.46,11,6.3,5.77,7,0h9c1.18,4.14-.86,8-1,12.06L15,12c-.76-.05-1,.43-1.07,1.07Z"/><path class="cls-1" d="M121.76,399.26c3.07-5.55,8.43-6.47,14-6.9-.55,2.42.44,4.63.94,6.9Z"/><path class="cls-1" d="M321.35,399.26c3.08-5.55,8.44-6.47,14-6.9-.54,2.42.45,4.63.94,6.9Z"/><path d="M136.73,399.26c-.5-2.27-1.49-4.48-.94-6.9,5.17.67,10.08,1.85,12.91,6.9Z"/><path d="M336.32,399.26c-.49-2.27-1.48-4.48-.94-6.9,5.18.67,10.09,1.85,12.92,6.9Z"/><path class="cls-1" d="M94.81,0c-3.54,3.94-12.32,5.55-17,3.53-2.33-1-.77-2.34-.94-3.53Z"/><path class="cls-1" d="M294.41,0c-3.54,3.94-12.32,5.55-17,3.53-2.32-1-.76-2.34-.94-3.53Z"/><path class="cls-1" d="M206.59,399.26a3.93,3.93,0,0,1,0-1c.83-3.12,1.74-8.07,4.5-7.78,3.38.35,4.43,5,4.45,8.75Z"/><path class="cls-1" d="M7,399.26a3.93,3.93,0,0,1,0-1c.83-3.12,1.74-8.07,4.5-7.78,3.38.35,4.43,5,4.45,8.75Z"/><path class="cls-1" d="M0,232.57c2.46-.23,2.29,2.11,3.29,3.32.79,1,.34,3.19,2.64,2.61l-.74,4.67L0,242.55Z"/><path class="cls-1" d="M5.19,43.53,0,42.92v-10c2.46-.24,2.29,2.1,3.29,3.31.79,1,.34,3.19,2.64,2.62Z"/><path class="cls-1" d="M0,146.73c4,1.16,2.57,5.56,4.75,7.8.13,1-.56,2.09.34,3L0,156.71Z"/><path class="cls-1" d="M0,346.36c4,1.16,2.57,5.57,4.75,7.81.13,1-.56,2.08.34,3L0,356.34Z"/><path d="M98.8,399.26c.24-2.11,2.86-3.39,2.08-5.87,2.7,1.22,5.61,2.24,5.91,5.87Z"/><path d="M298.4,399.26c.24-2.11,2.85-3.39,2.08-5.87,2.7,1.22,5.6,2.24,5.9,5.87Z"/><path class="cls-1" d="M399.2,268.51c-2.39.58-4.33-.4-6.16-1.76,1.84-.28,1.76-2.35,3-3.21,1.06.15,2.11-.77,3.18,0Z"/><path class="cls-1" d="M399.2,68.87c-2.39.58-4.33-.39-6.16-1.75,1.84-.28,1.76-2.35,3-3.21,1.06.15,2.11-.77,3.18,0Z"/><path d="M66.87,399.26c1.22-3.11,4.19-2.68,6.59-2.95,2.24-.25.76,2,1.39,2.95Z"/><path d="M266.46,399.26c1.24-3.09,4.19-2.7,6.6-2.95,2.24-.24.76,2,1.39,2.95Z"/><path d="M396.26,296.19c1-.49,1.09-2.63,2.94-1.73v6l-3.93-1.08Z"/><path d="M399.2,100.81l-3.93-1.07,1-3.18c1-.49,1.09-2.64,2.94-1.73Z"/><path class="cls-1" d="M396.07,179.68c1.22.24,1.77-1.65,3.13-1v5c-1.47.28-2.9.38-4-.94C395.38,181.68,394.92,180.45,396.07,179.68Z"/><path class="cls-1" d="M399.2,383.29c-1.47.28-2.9.38-4-.93.18-1.05-.28-2.28.87-3.05,1.22.24,1.77-1.65,3.13-1Z"/><path class="cls-1" d="M36.93,399.26c.12-1.14-.7-3.13,1.36-2.86s5-.49,5.62,2.86Z"/><path class="cls-1" d="M168.66,399.26c1.34-3.58,4.34-2.63,7-2.57l0,2.57Z"/><path class="cls-1" d="M236.53,399.26c.12-1.14-.7-3.13,1.36-2.86s5-.49,5.62,2.86Z"/><path class="cls-1" d="M368.26,399.26c1.34-3.58,4.34-2.63,7-2.57l0,2.57Z"/><path d="M375.25,399.26l0-2.57c2.61,1,5.91-.16,8,2.57Z"/><path d="M175.65,399.26l0-2.57c2.61,1,5.91-.16,7.95,2.57Z"/><path class="cls-1" d="M40.8,71.89c5.23-2.14,9.82-6.28,16.1-5.17,1.77.31,3.56.59,5.33,1s2.42,1.55,1.17,2.83c-1.71,1.75-1.2,2.77-.26,4.91C66.08,82.08,63,95,53.48,97.85a1.65,1.65,0,0,1-1.58-1.8c.24-3.29-.34-6.59.63-9.9s2.92-5.84,4.56-9.21c-6.17.39-12,3.14-17.17-1.09A3.6,3.6,0,0,1,40.8,71.89Z"/><path class="cls-1" d="M240.4,271.52c5.23-2.14,9.82-6.28,16.09-5.17,1.78.32,3.57.59,5.34,1s2.42,1.55,1.17,2.83c-1.71,1.75-1.2,2.77-.26,4.91,2.93,6.64-.19,19.59-9.66,22.41a1.65,1.65,0,0,1-1.58-1.8c.24-3.29-.34-6.59.63-9.9s2.92-5.84,4.56-9.21c-6.17.39-12,3.14-17.17-1.08A3.61,3.61,0,0,1,240.4,271.52Z"/><path class="cls-1" d="M40.8,271.52c5.23-2.14,9.82-6.28,16.1-5.17,1.77.32,3.56.59,5.33,1s2.42,1.55,1.17,2.83c-1.71,1.75-1.2,2.77-.26,4.91,2.94,6.64-.19,19.59-9.66,22.41a1.65,1.65,0,0,1-1.58-1.8,24.92,24.92,0,0,1,5.66-19.14c-6.64.42-12.43,3.17-17.64-1.05A3.61,3.61,0,0,1,40.8,271.52Z"/><path class="cls-1" d="M240.4,71.89c5.23-2.14,9.82-6.28,16.09-5.17,1.78.31,3.57.59,5.34,1s2.42,1.55,1.17,2.83c-1.71,1.75-1.2,2.77-.26,4.91,2.93,6.64-.19,19.59-9.66,22.41a1.65,1.65,0,0,1-1.58-1.8c.24-3.29-.31-6.58.62-9.91s3.11-5.75,4.35-9.18c-6,.37-11.74,3.12-17-1.11A3.6,3.6,0,0,1,240.4,71.89Z"/><path d="M44.36,173.75c-7,5.45-21.14,1.63-24.88-6.57-1.16-2.56.62-2.35,2-2.66,8.31-1.87,15,.86,20.39,7.23A2.32,2.32,0,0,0,44.36,173.75Z"/><path d="M244,173.75c-7,5.45-21.14,1.63-24.88-6.57-1.16-2.56.62-2.35,2-2.66,8.32-1.87,15,.86,20.4,7.23A2.32,2.32,0,0,0,244,173.75Z"/><path d="M88.69,157.56c.41-8.36,4.39-14.35,11.9-18.06,3.12-1.53,4.14-.64,3.94,2.72C104,151,98.16,158,89,160.43,88.88,159.47,88.79,158.52,88.69,157.56Z"/><path d="M288.29,357.19c.41-8.36,4.39-14.35,11.9-18.06,3.11-1.53,4.14-.64,3.94,2.72-.5,8.8-6.37,15.77-15.55,18.21C288.48,359.1,288.39,358.15,288.29,357.19Z"/><path d="M88.69,357.19c.41-8.36,4.39-14.35,11.9-18.06,3.12-1.53,4.14-.64,3.94,2.72-.5,8.8-6.37,15.77-15.55,18.21C88.88,359.1,88.79,358.15,88.69,357.19Z"/><path d="M244,373.38c-7,5.45-21.14,1.64-24.88-6.57-1.16-2.56.62-2.35,2-2.66,8.32-1.87,15,.87,20.4,7.23A2.32,2.32,0,0,0,244,373.38Z"/><path d="M44.36,373.38c-7,5.45-21.14,1.64-24.88-6.57-1.16-2.56.62-2.35,2-2.66,8.31-1.87,15,.87,20.39,7.23A2.32,2.32,0,0,0,44.36,373.38Z"/><path d="M240.4,71.89a3.6,3.6,0,0,0-.88,4c-8.52-2.79-13.83-16.8-9.24-24,1.25-2,2.17-.82,3.09,0a19.08,19.08,0,0,1,7.21,14.16C240.68,67.91,240.47,69.9,240.4,71.89Z"/><path d="M40.8,271.52a3.61,3.61,0,0,0-.88,4c-8.52-2.8-13.83-16.81-9.24-24.05,1.25-2,2.17-.82,3.09,0A19.1,19.1,0,0,1,41,265.56C41.09,267.54,40.87,269.53,40.8,271.52Z"/><path d="M203.62,354.77c3-7.74,7.5-13.89,16.39-15.57,3.49-.67,4.06.33,3.1,3.52A19.69,19.69,0,0,1,203.81,357C203.75,356.23,203.68,355.5,203.62,354.77Z"/><path d="M240.4,271.52a3.61,3.61,0,0,0-.88,4c-8.52-2.8-13.83-16.81-9.24-24.05,1.25-2,2.16-.82,3.09,0a19.1,19.1,0,0,1,7.21,14.16C240.68,267.54,240.47,269.53,240.4,271.52Z"/><path d="M255.41,210.53c3.36-6.32,7.57-11.65,15-13.57,3.42-.89,4.48-.34,3.44,3.49-2.34,8.61-8.75,14.11-18.24,15Z"/><path d="M55.81,210.53c3.36-6.32,7.57-11.65,15-13.57,3.42-.89,4.48-.34,3.44,3.49-2.34,8.61-8.75,14.11-18.24,15C55.92,213.82,55.87,212.17,55.81,210.53Z"/><path d="M288.29,157.56c.41-8.32,4.35-14.3,11.81-18,2.87-1.43,4.21-1.05,4,2.54a19.61,19.61,0,0,1-15.83,18.29Z"/><path d="M40.8,71.89a3.6,3.6,0,0,0-.88,4c-8.52-2.79-13.83-16.8-9.24-24,1.25-2,2.17-.82,3.09,0A19.08,19.08,0,0,1,41,65.93C41.09,67.91,40.87,69.9,40.8,71.89Z"/><path d="M194.5,267.29c-7.82-5.05-11.11-13.25-8.89-21.85.82-3.19,1.83-4.28,4.7-1.52,5.7,5.47,7.08,12.15,6.11,19.62Z"/><path d="M135.6,332.26c2.23-7.77,7.5-12.18,15.23-14.06,2.78-.67,3.09.36,2.72,2.73-1.34,8.43-8.58,14.72-18.55,16Z"/><path d="M316.52,82.65c5.88,7.72,6.15,16.85,1,24-1.83,2.56-2.8,2.06-4.1-.23-4.15-7.34-4-14.53.57-21.63Z"/><path d="M57.68,319.17c2.22-8,7.35-13,15.52-14.9,4-.95,4.23.7,3.15,3.76-3.08,8.68-9.15,13.45-18.36,14.15l-1.2-.65,0,0A2.73,2.73,0,0,0,57.68,319.17Z"/><path d="M335.2,132.63c2.23-7.77,7.5-12.18,15.23-14.06,2.78-.68,3.09.35,2.72,2.72-1.34,8.44-8.59,14.73-18.55,16Z"/><path d="M194.5,67.66c-7.82-5-11.11-13.25-8.89-21.85.82-3.19,1.83-4.28,4.7-1.52,5.7,5.47,7.08,12.15,6.11,19.62Z"/><path d="M257.28,319.17c2.37-8.43,7.78-13.51,16.49-15,1.69-.29,3-.49,2.65,1.94-1.46,9.74-12.55,17.79-20.07,15.43A2.76,2.76,0,0,0,257.28,319.17Z"/><path d="M135.6,132.63c2.23-7.77,7.5-12.18,15.23-14.06,2.78-.68,3.09.35,2.72,2.72-1.34,8.44-8.58,14.73-18.55,16Z"/><path d="M257.28,119.54c2.37-8.43,7.78-13.52,16.49-15,1.69-.29,3-.49,2.65,1.94-1.46,9.73-12.55,17.79-20.07,15.43A2.76,2.76,0,0,0,257.28,119.54Z"/><path d="M57.68,119.54c2.38-8.43,7.78-13.52,16.49-15,1.69-.29,3-.49,2.65,1.94-1.46,9.73-12.54,17.79-20.07,15.43A2.76,2.76,0,0,0,57.68,119.54Z"/><path d="M116.92,282.29c5.88,7.72,6.15,16.84,1,24-1.83,2.56-2.8,2.06-4.1-.23-4.15-7.34-4-14.53.57-21.62Z"/><path d="M335.2,332.26c2.23-7.77,7.5-12.18,15.23-14.06,2.78-.67,3.09.36,2.72,2.73-1.34,8.43-8.59,14.72-18.55,16Z"/><path d="M316.52,282.29c5.88,7.72,6.15,16.84,1,24-1.83,2.56-2.8,2.06-4.1-.23-4.15-7.34-4-14.53.57-21.62Z"/><path d="M116.92,82.65c5.88,7.72,6.15,16.85,1,24-1.83,2.56-2.8,2.06-4.1-.23-4.15-7.34-4-14.53.57-21.63Z"/><path d="M396,263.54c-1.22.86-1.14,2.93-3,3.21-7.48-6-10.32-14.61-7.54-22.38.84-2.37,1.7-2.77,3.71-1C395.48,248.76,397,255.7,396,263.54Z"/><path d="M124.62,368.5c-8.65-7-10.92-16-6.25-24.78,7.31,4.44,10.58,11.7,9,20.15-.13.66-.5,1.17.29,1.57C127.57,367.38,125.89,367.74,124.62,368.5Z"/><path d="M365.52,356.82c2.13-7.84,7.06-12.89,14.92-15.09,3.08-.86,4.29-.33,3.4,3.23-2.19,8.68-9.11,14.53-18.49,15.26C365.41,359.09,365.47,358,365.52,356.82Z"/><path d="M365.33,40A19.3,19.3,0,0,1,344,27.79c-.8-2.29-.41-2.95,1.94-2.91q12.91.27,18.41,11.9C364.7,37.85,365,38.92,365.33,40Z"/><path d="M365.33,239.63A19.3,19.3,0,0,1,344,227.42c-.8-2.29-.41-2.95,1.94-2.9q12.91.25,18.41,11.89C364.7,237.49,365,238.56,365.33,239.63Z"/><path d="M165.93,356.82c2.12-7.84,7-12.89,14.91-15.09,3.08-.86,4.29-.33,3.4,3.23-2.19,8.68-9.11,14.53-18.49,15.26Z"/><path d="M5.09,357.15c-.9-.9-.21-2-.34-3,2.23-8.28,7.51-13.25,15.94-15,3.33-.69,3.68.5,2.9,3.32C21.33,350.69,14.82,355.93,5.09,357.15Z"/><path d="M164.71,173.73A19.54,19.54,0,0,1,183.47,189c.57,2.81.16,4-3.14,3.14-7.61-2.08-12.76-6.55-14.81-14.31Z"/><path d="M396,63.91c-1.22.86-1.14,2.93-3,3.21-7.48-6-10.32-14.61-7.54-22.38.84-2.37,1.7-2.77,3.71-1C395.48,49.13,397,56.07,396,63.91Z"/><path class="cls-1" d="M293.41,329.48c-.89-8.06,2-14.54,8.14-19.7,2.34-2,3.45-1.63,4.19,1.56,2,8.69-2.25,17.23-11.37,22Z"/><path d="M165.73,239.63a19.28,19.28,0,0,1-21.29-12.21c-.81-2.29-.41-2.95,1.93-2.9q12.91.25,18.41,11.89C165.1,237.49,165.41,238.56,165.73,239.63Z"/><path class="cls-1" d="M93.81,329.48c-.89-8.06,2-14.54,8.14-19.7,2.34-2,3.45-1.63,4.19,1.56,2,8.69-2.25,17.23-11.36,22C94.45,332.05,94.13,330.76,93.81,329.48Z"/><path d="M336.33,62c8.1,3.93,11.74,16.93,7,24.47-1.44,2.3-2.36,1-3.35,0-6-6.23-7.19-13.5-4.47-21.55C336.74,64.14,336.46,63,336.33,62Z"/><path d="M364.31,173.73A19.54,19.54,0,0,1,383.07,189c.57,2.81.16,4-3.14,3.14-7.61-2.08-12.76-6.55-14.81-14.31Z"/><path d="M364.31,373.36a19.55,19.55,0,0,1,18.76,15.26c.57,2.8.16,4-3.14,3.13-7.61-2.08-12.76-6.55-14.81-14.31Z"/><path d="M5.09,157.52c-.9-.9-.21-2-.34-3,2.23-8.28,7.51-13.24,15.94-15,3.33-.69,3.68.5,2.9,3.32C21.33,151.06,14.82,156.3,5.09,157.52Z"/><path class="cls-1" d="M93.81,129.84c-.89-8,2-14.53,8.14-19.69,2.34-2,3.45-1.63,4.19,1.56,2,8.69-2.25,17.23-11.36,22C94.45,132.42,94.13,131.13,93.81,129.84Z"/><path class="cls-1" d="M293.41,129.84c-.89-8,2-14.53,8.14-19.69,2.34-2,3.45-1.63,4.19,1.56,2,8.69-2.25,17.23-11.37,22Z"/><path d="M164.71,373.36a19.55,19.55,0,0,1,18.76,15.26c.57,2.8.16,4-3.14,3.13-7.61-2.08-12.76-6.55-14.81-14.31Z"/><path d="M204.38,154.48c2.22-8.29,7.54-13.19,16-14.95,3.41-.71,3.6.61,2.84,3.35-2.28,8.22-8.82,13.46-18.49,14.62C203.83,156.57,204.54,155.48,204.38,154.48Z"/><path d="M165.93,157.19c2.12-7.84,7-12.89,14.91-15.09,3.08-.86,4.29-.33,3.4,3.23-2.19,8.68-9.11,14.53-18.49,15.26Z"/><path d="M365.52,157.19c2.13-7.84,7.06-12.89,14.92-15.09,3.08-.86,4.29-.33,3.4,3.23-2.19,8.68-9.11,14.53-18.49,15.26C365.41,159.46,365.47,158.33,365.52,157.19Z"/><path d="M124.62,168.86c-8.65-7-10.92-16-6.25-24.77,7.31,4.44,10.58,11.7,9,20.15-.13.66-.5,1.17.29,1.57C127.57,167.75,125.89,168.1,124.62,168.86Z"/><path d="M324.22,168.86c-8.65-7-10.92-16-6.25-24.77,7.3,4.44,10.58,11.7,9,20.15-.13.66-.5,1.17.29,1.57C327.17,167.75,325.49,168.1,324.22,168.86Z"/><path d="M324.22,368.5c-8.65-7-10.92-16-6.25-24.78,7.3,4.44,10.58,11.7,9,20.15-.13.66-.5,1.17.29,1.57C327.17,367.38,325.49,367.74,324.22,368.5Z"/><path d="M165.73,40a19.28,19.28,0,0,1-21.29-12.21c-.81-2.29-.41-2.95,1.93-2.91q12.91.27,18.41,11.9Z"/><path d="M38.05,133.74c3.36-5.39,11.63-7.89,19-5.57a15.73,15.73,0,0,1,7.87,4.8c-5.59,5-11.88,5.87-18.8,4.12-1.74-.44-3.26-1.74-5.2-1.38C41,133.6,39.81,133.22,38.05,133.74Z"/><path d="M175.78,196.86c9.68,1.56,16.14,7.25,17.95,15.3.8,3.59-.57,4.13-3.46,3.25-7.89-2.38-13.16-7.28-14.75-15.62Z"/><path d="M237.65,133.74c3.36-5.39,11.62-7.89,19-5.57a15.73,15.73,0,0,1,7.87,4.8c-5.59,5-11.88,5.87-18.8,4.12-1.74-.44-3.26-1.74-5.2-1.38C240.56,133.6,239.41,133.22,237.65,133.74Z"/><path d="M237.65,333.38c3.36-5.4,11.62-7.89,19-5.59a17.91,17.91,0,0,1,8,4.74c-5.68,5.05-12,5.94-18.89,4.19-1.74-.44-3.26-1.74-5.2-1.38C240.56,333.23,239.41,332.85,237.65,333.38Z"/><path d="M375.38,196.86c9.68,1.56,16.14,7.25,17.95,15.3.8,3.59-.57,4.13-3.46,3.25-7.89-2.38-13.16-7.28-14.75-15.62C375.2,198.81,375.29,197.84,375.38,196.86Z"/><path d="M267.33,260.38c1.95-8,7.08-12.86,15-14.89,2.6-.66,3.61,0,3.15,2.88-1.39,8.72-10.19,15.82-19.13,15.24C266.82,262.57,267.72,261.67,267.33,260.38Z"/><path d="M67.73,260.38c2-8,7.08-12.86,15-14.89,2.6-.66,3.61,0,3.15,2.88-1.39,8.72-10.19,15.82-19.12,15.24C67.22,262.57,68.12,261.67,67.73,260.38Z"/><path d="M67.73,60.75c2-8,7.08-12.86,15-14.89,2.6-.67,3.61,0,3.15,2.88C84.5,57.46,75.7,64.56,66.77,64,67.22,62.94,68.12,62,67.73,60.75Z"/><path d="M138.8,62.8c6.69,6.17,8.43,13.58,5.59,22.17-1.08,3.28-2.45,3.37-4.64.81-5.38-6.27-6.4-13.25-3.8-20.93C137,64.28,137.09,62.42,138.8,62.8Z"/><path d="M382.73,322.4c-6,6.9-17.19,8.14-24.67,2.87-1.92-1.35-2.07-2.2-.1-3.51,7.31-4.86,14.74-5.25,22.35-.76A3.13,3.13,0,0,0,382.73,322.4Z"/><path d="M183.13,122.77c-6,6.9-17.19,8.13-24.67,2.87-1.92-1.35-2.07-2.21-.1-3.51,7.31-4.86,14.74-5.26,22.35-.76A3.13,3.13,0,0,0,183.13,122.77Z"/><path d="M382.73,122.77c-6,6.9-17.19,8.13-24.67,2.87-1.92-1.35-2.07-2.21-.1-3.51,7.31-4.86,14.74-5.26,22.35-.76A3.13,3.13,0,0,0,382.73,122.77Z"/><path d="M38.05,333.38c3.36-5.4,11.63-7.9,19-5.58a15.8,15.8,0,0,1,7.87,4.8c-5.59,5-11.88,5.87-18.8,4.12-1.74-.44-3.26-1.74-5.2-1.38C41,333.23,39.81,332.85,38.05,333.38Z"/><path d="M336.42,261.62c8.06,4.08,11.65,17.08,6.93,24.5-1.47,2.32-2.39.89-3.36-.12-6-6.22-7.15-13.48-4.44-21.52C336.64,263.77,336.44,262.66,336.42,261.62Z"/><path d="M183.13,322.4c-6,6.9-17.19,8.14-24.67,2.87-1.92-1.35-2.07-2.2-.1-3.51,7.31-4.86,14.74-5.25,22.35-.76A3.13,3.13,0,0,0,183.13,322.4Z"/><path d="M136.82,261.62c8.06,4.08,11.65,17.08,6.93,24.5-1.47,2.32-2.39.89-3.36-.12-6-6.22-7.15-13.48-4.44-21.52C137,263.77,136.84,262.66,136.82,261.62Z"/><path d="M267.33,60.75c1.95-8,7.08-12.86,15-14.89,2.6-.67,3.61,0,3.15,2.88C284.1,57.46,275.3,64.56,266.36,64,266.82,62.94,267.72,62,267.33,60.75Z"/><path class="cls-1" d="M364.31,373.36l.81,4.08c-2.39-.23-1.86,2-2.44,3.1-3.07,6-7.7,9.82-14.35,11.27-2.81.61-3.16-.41-2.71-2.83A19.42,19.42,0,0,1,364.31,373.36Z"/><path d="M379,89c-1,9.73-7.15,16.56-16,18.23-2.79.52-3.66.09-2.88-2.84,2.1-7.86,6.85-13,14.84-14.92Z"/><path d="M82.85,284.49c9.15-.18,17.82,7.05,19,15.7.33,2.47-.23,3.22-2.9,2.63-8.78-1.94-13.41-7.87-16-15.93C82.89,286.09,82.87,285.29,82.85,284.49Z"/><path d="M82.85,84.86c9.15-.18,17.82,7,19,15.7.33,2.47-.23,3.22-2.9,2.63-8.78-1.94-13.41-7.88-16-15.94C82.89,86.46,82.87,85.66,82.85,84.86Z"/><path class="cls-1" d="M164.71,173.73l.81,4.08c-2.39-.23-1.86,2-2.44,3.1-3.07,6-7.7,9.82-14.35,11.27-2.81.61-3.16-.41-2.71-2.83A19.42,19.42,0,0,1,164.71,173.73Z"/><path d="M282.45,284.49c9.15-.18,17.82,7.05,19,15.7.33,2.47-.23,3.22-2.9,2.63-8.78-1.94-13.41-7.87-16-15.93C282.48,286.09,282.47,285.29,282.45,284.49Z"/><path class="cls-1" d="M219.56,328.47c0-7.22,1.32-13.93,7.22-18.86,3.63-3,4.32-2.78,5.19,1.69,1.64,8.46-2.69,16.46-11.41,21.08Z"/><path d="M282.45,84.86c9.15-.18,17.82,7,19,15.7.33,2.47-.23,3.22-2.9,2.63-8.78-1.94-13.41-7.88-16-15.94C282.48,86.46,282.47,85.66,282.45,84.86Z"/><path class="cls-1" d="M364.31,173.73l.81,4.08c-2.39-.23-1.86,2-2.44,3.1-3.07,6-7.7,9.82-14.35,11.27-2.81.61-3.16-.41-2.71-2.83A19.42,19.42,0,0,1,364.31,173.73Z"/><path d="M179.37,288.63c-1,9.73-7.15,16.57-16,18.23-2.79.52-3.66.09-2.88-2.84,2.1-7.85,6.85-13,14.84-14.92Z"/><path d="M179.37,89c-1,9.73-7.15,16.56-16,18.23-2.79.52-3.66.09-2.88-2.84,2.1-7.86,6.85-13,14.84-14.92Z"/><path class="cls-1" d="M164.71,373.36l.81,4.08c-2.39-.23-1.86,2-2.44,3.1-3.07,6-7.7,9.82-14.35,11.27-2.81.61-3.16-.41-2.71-2.83A19.42,19.42,0,0,1,164.71,373.36Z"/><path class="cls-1" d="M219.56,128.84c0-7.22,1.32-13.93,7.22-18.86,3.63-3,4.32-2.78,5.19,1.69,1.64,8.46-2.69,16.46-11.41,21.08Z"/><path class="cls-1" d="M21,132.75l-1-3.9c0-7.22,1.31-13.94,7.21-18.87,3.63-3,4.33-2.78,5.2,1.69C34,120.13,29.68,128.14,21,132.75Z"/><path d="M304.93,263.49c-4.64,8.56-17.29,9.88-24.08,6.41-2.28-1.16-2-2-.43-3.54,6.5-6,13.85-7,21.95-3.95A2.67,2.67,0,0,0,304.93,263.49Z"/><path d="M105.33,263.49c-4.64,8.56-17.29,9.88-24.08,6.41-2.28-1.16-2-2-.42-3.54,6.49-6,13.84-7,22-3.95A2.64,2.64,0,0,0,105.33,263.49Z"/><path class="cls-1" d="M21,332.38l-1-3.9c0-7.22,1.31-13.93,7.21-18.87,3.63-3,4.33-2.78,5.2,1.69C34,319.77,29.68,327.77,21,332.38Z"/><path d="M135.79,192.73c9.37,1.28,16,6.91,17.89,14.9.77,3.27.32,4.71-3.49,3.57-7.87-2.34-12.8-7.34-14.65-15.35C135.62,194.81,135.7,193.77,135.79,192.73Z"/><path d="M379,288.63c-1,9.73-7.15,16.57-16,18.23-2.79.52-3.66.09-2.88-2.84,2.1-7.85,6.85-13,14.84-14.92Z"/><path d="M105.33,63.86c-4.64,8.56-17.29,9.88-24.08,6.41-2.28-1.16-2-2-.42-3.54,6.49-6,13.84-7,22-4A2.66,2.66,0,0,0,105.33,63.86Z"/><path d="M304.93,63.86c-4.64,8.56-17.29,9.88-24.08,6.41-2.28-1.16-2-2-.43-3.54,6.5-6,13.85-7,21.95-4A2.69,2.69,0,0,0,304.93,63.86Z"/><path d="M335.38,192.73c9.38,1.28,16,6.91,17.9,14.9.76,3.27.32,4.71-3.49,3.57-7.87-2.34-12.8-7.34-14.66-15.35Z"/><path d="M396.07,379.31c-1.15.77-.69,2-.87,3.05-8.52-3.72-13.26-14.12-10.46-22.56.78-2.35,1.63-2.37,3.39-1C395,364,397.32,371,396.07,379.31Z"/><path d="M195.61,382.33c-8.5-3.63-13.27-14.09-10.46-22.54.78-2.36,1.64-2.35,3.39-1,6.9,5.24,9.2,12.2,7.91,20.57C195.29,380.08,195.74,381.29,195.61,382.33Z"/><path class="cls-1" d="M304.93,263.49a2.67,2.67,0,0,1-2.56-1.08c-4-6.29-6.83-12.8-4-20.43.51-1.37.7-3.33,2.15-3.68,1.81-.45,2.67,1.51,3.62,2.75C309.44,248,309.72,256.44,304.93,263.49Z"/><path d="M356.09,61.65c1.92-7.89,6.6-13.25,14.48-15.6,3.15-.94,5.1-.86,3.86,3.58A19.45,19.45,0,0,1,356,64.17Z"/><path d="M251.5,295.68a1.65,1.65,0,0,0,1.58,1.8c-7.2,4.94-20.67,1.19-24.37-6.67-1.31-2.79.92-2.71,2.27-3C239.42,286.15,246.11,289.25,251.5,295.68Z"/><path d="M51.9,295.68a1.65,1.65,0,0,0,1.58,1.8c-7.2,4.94-20.67,1.19-24.37-6.67-1.31-2.79.92-2.71,2.27-3C39.83,286.15,46.52,289.25,51.9,295.68Z"/><path d="M51.9,96.05a1.65,1.65,0,0,0,1.58,1.8c-7.2,4.94-20.67,1.18-24.37-6.67-1.31-2.79.92-2.71,2.27-3C39.83,86.52,46.52,89.62,51.9,96.05Z"/><path d="M251.5,96.05a1.65,1.65,0,0,0,1.58,1.8c-7.2,4.94-20.67,1.18-24.37-6.67-1.31-2.79.92-2.71,2.27-3C239.42,86.52,246.11,89.62,251.5,96.05Z"/><path class="cls-1" d="M255.41,210.53l.17,4.94c-9.11-.55-16-5.74-18.49-14-.43-1.4-1.22-3.06-.23-4.26,1.12-1.37,2.74-.31,4.12.09a19.55,19.55,0,0,1,12.29,10.1C253.86,208.55,253.78,210.14,255.41,210.53Z"/><path d="M156.49,61.65c1.92-7.89,6.61-13.25,14.48-15.6,3.15-.94,5.1-.86,3.86,3.58a19.45,19.45,0,0,1-18.46,14.54Z"/><path class="cls-1" d="M396.26,296.19l-1,3.18c-9-4.78-13.07-12.95-11.24-22,.68-3.36,2-3.37,4.21-1.51a20.28,20.28,0,0,1,7.87,15.38C396.18,292.9,396.21,294.55,396.26,296.19Z"/><path class="cls-1" d="M195.67,299.37c-9-4.78-13.07-13-11.24-22,.69-3.37,2-3.36,4.21-1.51a20.28,20.28,0,0,1,7.87,15.39c.07,1.65.1,3.29.15,4.94Z"/><path class="cls-1" d="M379,288.63l-4,.47c0-2.21-2.06-1.82-3.23-2.41a19.53,19.53,0,0,1-10.35-12.13c-.44-1.48-1.77-3.38-.39-4.65s3.5-.24,5.14.44C374.28,273.69,378.76,279.67,379,288.63Z"/><path d="M219.56,128.84l1,3.91c-8.74,2.82-17.53.17-22.6-6.63-1.81-2.42-1.66-3.59,1.5-4.19C207.53,120.37,213.9,123.52,219.56,128.84Z"/><path d="M219.56,328.47l1,3.91c-8.74,2.83-17.53.18-22.6-6.63-1.81-2.42-1.66-3.58,1.5-4.19C207.53,320,213.9,323.15,219.56,328.47Z"/><path class="cls-1" d="M105.33,263.49a2.64,2.64,0,0,1-2.55-1.08c-4-6.29-6.84-12.8-4-20.43.5-1.37.69-3.33,2.14-3.68,1.81-.45,2.67,1.51,3.62,2.75C109.84,248,110.12,256.44,105.33,263.49Z"/><path class="cls-1" d="M304.93,63.86a2.69,2.69,0,0,1-2.56-1.08c-4-6.29-6.83-12.81-4-20.43.51-1.37.7-3.33,2.15-3.69,1.81-.44,2.67,1.52,3.61,2.75C309.44,48.41,309.72,56.81,304.93,63.86Z"/><path d="M66.87,173.69c11,.52,19,9.07,17.52,18.8-9.34-1.4-15.07-6.75-17.57-15.76Z"/><path d="M112.56,189.42c1.78-8.29,7-13.26,15-15.54,3-.84,3.81.18,3.25,3.18-1.48,7.91-8.37,13.93-17.93,15.42C112.77,191.46,112.66,190.44,112.56,189.42Z"/><path d="M205.34,239.35c1.82-7.62,6.72-12.25,14-14.52,3.49-1.08,4.93-.35,3.79,3.66-2.39,8.42-8.81,13.67-18.37,14.68C205,241.9,205.17,240.62,205.34,239.35Z"/><path class="cls-1" d="M179.37,288.63l-4,.47c0-2.21-2.06-1.82-3.22-2.41a19.51,19.51,0,0,1-10.36-12.13c-.44-1.48-1.77-3.38-.39-4.65s3.5-.24,5.14.44C174.68,273.69,179.16,279.67,179.37,288.63Z"/><path class="cls-1" d="M105.33,63.86a2.66,2.66,0,0,1-2.55-1.08c-4-6.29-6.84-12.81-4-20.43.5-1.37.69-3.33,2.14-3.69,1.81-.44,2.67,1.52,3.62,2.75C109.84,48.41,110.12,56.81,105.33,63.86Z"/><path d="M266.47,173.69c11,.52,19,9.07,17.52,18.8-9.34-1.4-15.08-6.75-17.57-15.76C266.43,175.72,266.45,174.7,266.47,173.69Z"/><path d="M205.34,39.71c1.82-7.61,6.72-12.24,14-14.51,3.49-1.09,4.93-.35,3.79,3.66-2.39,8.41-8.81,13.67-18.37,14.68C205,42.26,205.17,41,205.34,39.71Z"/><path class="cls-1" d="M179.37,89l-4,.47c0-2.22-2.06-1.82-3.22-2.42a19.47,19.47,0,0,1-10.36-12.12c-.44-1.48-1.77-3.38-.39-4.65s3.5-.24,5.14.43C174.68,74.05,179.16,80,179.37,89Z"/><path d="M5.19,243.17l.74-4.67c2-6.9,6.55-11.31,13.32-13.48,1.39-.45,3.17-1.29,4.23-.27,1.3,1.26.27,3.1-.27,4.61C20.19,237.84,14.31,242.63,5.19,243.17Z"/><path d="M5.19,43.53l.74-4.66c2-6.91,6.55-11.31,13.32-13.49,1.39-.44,3.17-1.28,4.23-.26,1.3,1.26.27,3.1-.27,4.61C20.19,38.21,14.31,43,5.19,43.53Z"/><path class="cls-1" d="M379,89l-4,.47c0-2.22-2.06-1.82-3.23-2.42a19.48,19.48,0,0,1-10.35-12.12c-.44-1.48-1.77-3.38-.39-4.65s3.5-.24,5.14.43C374.28,74.05,378.76,80,379,89Z"/><path d="M312.16,189.42c1.78-8.29,7-13.26,15-15.54,3-.84,3.81.18,3.25,3.18C328.93,185,322,191,312.47,192.48,312.37,191.46,312.26,190.44,312.16,189.42Z"/><path class="cls-1" d="M195.67,99.73c-9-4.77-13.07-13-11.24-22,.69-3.38,2-3.36,4.21-1.51a20.28,20.28,0,0,1,7.87,15.39c.07,1.64.1,3.29.15,4.94Z"/><path d="M312.16,389.05c1.78-8.29,7-13.26,15-15.54,3-.84,3.81.18,3.25,3.18-1.48,7.91-8.37,13.93-17.94,15.42C312.37,391.09,312.26,390.07,312.16,389.05Z"/><path d="M266.47,373.32c11,.52,19,9.07,17.52,18.8-9.34-1.4-15.08-6.75-17.57-15.75Z"/><path d="M356.09,261.29c1.92-7.9,6.6-13.26,14.48-15.61,3.15-.94,5.1-.86,3.86,3.58A19.45,19.45,0,0,1,356,263.8Z"/><path d="M112.56,389.05c1.78-8.29,7-13.26,15-15.54,3-.84,3.81.18,3.25,3.18-1.48,7.91-8.37,13.93-17.93,15.42C112.77,391.09,112.66,390.07,112.56,389.05Z"/><path d="M156.49,261.29c1.92-7.9,6.61-13.26,14.48-15.61,3.15-.94,5.1-.86,3.86,3.58a19.45,19.45,0,0,1-18.46,14.54Z"/><path class="cls-1" d="M55.81,210.53c.06,1.64.11,3.29.17,4.94-9.11-.55-16-5.74-18.49-14-.43-1.4-1.22-3.06-.23-4.26,1.12-1.37,2.74-.31,4.12.09a19.55,19.55,0,0,1,12.29,10.1C54.26,208.55,54.18,210.14,55.81,210.53Z"/><path d="M66.87,373.32c11,.52,19,9.07,17.52,18.8-9.34-1.4-15.07-6.75-17.57-15.75Z"/><path d="M195.61,182.7c-8.5-3.63-13.27-14.09-10.46-22.54.78-2.36,1.64-2.35,3.39-1,6.9,5.24,9.2,12.2,7.91,20.56C195.29,180.45,195.74,181.66,195.61,182.7Z"/><path d="M396.07,179.68c-1.15.77-.69,2-.87,3-8.52-3.71-13.26-14.11-10.46-22.56.78-2.34,1.63-2.36,3.39-1C395,164.35,397.32,171.33,396.07,179.68Z"/><path class="cls-1" d="M396.26,96.56l-1,3.18c-9-4.78-13.07-12.95-11.24-22,.68-3.36,2-3.37,4.21-1.52a20.3,20.3,0,0,1,7.87,15.39C396.18,93.27,396.21,94.91,396.26,96.56Z"/><path class="cls-1" d="M243.3,28.12c-1.86.77-1.7,2.74-2.41,4.17a19.32,19.32,0,0,1-14,10.88c-2.23.47-3.44.61-2.88-2.48A19.19,19.19,0,0,1,242.53,25C242.79,26,243,27.07,243.3,28.12Z"/><path d="M195.67,99.73l1-3.16c4.82-6,11-8.74,18.71-7.86,1.49.17,3.49.11,4,1.39.72,1.65-1,3-2.11,4.12C211.28,100.59,204.05,102.5,195.67,99.73Z"/><path class="cls-1" d="M183.13,122.77a3.13,3.13,0,0,1-2.42-1.4c-2-5.74-4.61-11.37-2.19-17.67.94-2.44,1.56-6.27,3.9-6.35,2.82-.09,3.72,3.68,4.57,6.26C189.32,110.69,188.58,117.23,183.13,122.77Z"/><path class="cls-1" d="M382.73,122.77a3.13,3.13,0,0,1-2.42-1.4c-1.95-5.74-4.61-11.37-2.19-17.67.94-2.44,1.56-6.27,3.9-6.35,2.82-.09,3.72,3.68,4.57,6.26C388.92,110.69,388.18,117.23,382.73,122.77Z"/><path class="cls-1" d="M165.93,157.19l-.18,3.4c-9.43-.58-16.48-6.27-18.67-14.87-.91-3.57,0-4.51,3.62-3.46a20.22,20.22,0,0,1,13.18,11.07C164.51,154.64,164.58,156.26,165.93,157.19Z"/><path class="cls-1" d="M365.52,157.19c0,1.14-.11,2.27-.17,3.4-9.43-.58-16.48-6.27-18.68-14.87-.9-3.57.05-4.51,3.63-3.46a20.24,20.24,0,0,1,13.18,11.07C364.11,154.64,364.18,156.26,365.52,157.19Z"/><path class="cls-1" d="M44.36,173.75a2.32,2.32,0,0,1-2.48-2,88,88,0,0,1,1.19-9.5,18.23,18.23,0,0,1,7.85-11.1c1-.73,2-1.77,3,.36C57.41,158.8,52.19,171.07,44.36,173.75Z"/><path class="cls-1" d="M244,173.75a2.32,2.32,0,0,1-2.48-2,88,88,0,0,1,1.19-9.5,18.23,18.23,0,0,1,7.85-11.1c1-.73,2-1.77,3,.36C257,158.8,251.79,171.07,244,173.75Z"/><path class="cls-1" d="M44.36,373.38a2.32,2.32,0,0,1-2.48-2,88.36,88.36,0,0,1,1.19-9.5,18.23,18.23,0,0,1,7.85-11.1c1-.72,2-1.77,3,.36C57.41,358.43,52.19,370.7,44.36,373.38Z"/><path class="cls-1" d="M43.7,227.75c-1.85.77-1.7,2.74-2.41,4.17a19.28,19.28,0,0,1-14,10.88c-2.23.47-3.43.61-2.88-2.48A19.19,19.19,0,0,1,42.93,224.6C43.19,225.65,43.44,226.7,43.7,227.75Z"/><path class="cls-1" d="M243.3,227.75c-1.86.77-1.7,2.74-2.41,4.17a19.29,19.29,0,0,1-14,10.88c-2.23.47-3.44.61-2.88-2.48a19.19,19.19,0,0,1,18.52-15.72C242.79,225.65,243,226.7,243.3,227.75Z"/><path d="M195.67,299.37l1-3.17c4.82-6,11-8.74,18.71-7.86,1.49.17,3.49.11,4,1.39.72,1.65-1,3-2.11,4.12C211.28,300.22,204.05,302.13,195.67,299.37Z"/><path class="cls-1" d="M183.13,322.4a3.13,3.13,0,0,1-2.42-1.4c-2-5.74-4.61-11.37-2.19-17.67.94-2.44,1.56-6.26,3.9-6.34,2.82-.1,3.72,3.67,4.57,6.26C189.32,310.32,188.58,316.86,183.13,322.4Z"/><path class="cls-1" d="M382.73,322.4a3.13,3.13,0,0,1-2.42-1.4c-1.95-5.74-4.61-11.37-2.19-17.67.94-2.44,1.56-6.26,3.9-6.34,2.82-.1,3.72,3.67,4.57,6.26C388.92,310.32,388.18,316.86,382.73,322.4Z"/><path class="cls-1" d="M165.93,356.82l-.18,3.4c-9.43-.58-16.48-6.27-18.67-14.87-.91-3.57,0-4.51,3.62-3.46A20.22,20.22,0,0,1,163.88,353C164.51,354.27,164.58,355.89,165.93,356.82Z"/><path class="cls-1" d="M365.52,356.82c0,1.14-.11,2.27-.17,3.4-9.43-.57-16.48-6.27-18.68-14.87-.9-3.57.05-4.51,3.63-3.46A20.24,20.24,0,0,1,363.48,353C364.11,354.27,364.18,355.89,365.52,356.82Z"/><path class="cls-1" d="M244,373.38a2.32,2.32,0,0,1-2.48-2,88.36,88.36,0,0,1,1.19-9.5,18.23,18.23,0,0,1,7.85-11.1c1-.72,2-1.77,3,.36C257,358.43,251.79,370.7,244,373.38Z"/><path class="cls-1" d="M43.7,28.12c-1.85.77-1.7,2.74-2.41,4.17a19.3,19.3,0,0,1-14,10.88c-2.23.47-3.43.61-2.88-2.48A19.19,19.19,0,0,1,42.93,25C43.19,26,43.44,27.07,43.7,28.12Z"/><path d="M139.58,233.65c-4.51,8.5-12.28,12.4-21.33,11-3.19-.51-3.52-1.6-1.69-4.09,5.34-7.23,12.69-9,21.13-8.06C138,233.42,138.81,233.46,139.58,233.65Z"/><path d="M339.17,233.65c-4.5,8.5-12.27,12.4-21.32,11-3.19-.51-3.52-1.6-1.69-4.09,5.34-7.23,12.69-9,21.13-8.06C337.56,233.42,338.41,233.46,339.17,233.65Z"/><path class="cls-1" d="M195.61,182.7c.13-1-.32-2.25.84-3,5.55-4.62,11.4-8.44,19.17-7.19,1.48.24,3.43.11,4.07,1.4.84,1.72-1,2.93-2.05,4.1A18.72,18.72,0,0,1,195.61,182.7Z"/><path d="M293.41,129.84l1,3.86c-9.05,2.67-17.59,0-22.57-6.74-1.85-2.52-1.49-3.63,1.6-4.16C281.41,121.42,287.88,124.26,293.41,129.84Z"/><path class="cls-1" d="M124.62,168.86c1.27-.76,2.95-1.11,3-3.05,4.15-2.31,7.93-5.46,13-5.77,3.61-.22,8.68-.68,9.66,2.61.9,3-3.73,5.37-6.81,6.87C137.15,172.6,130.77,172.65,124.62,168.86Z"/><path d="M93.81,329.48c.32,1.28.64,2.57,1,3.85-9,2.67-17.6,0-22.58-6.73-1.85-2.53-1.49-3.64,1.6-4.17C81.81,321.05,88.28,323.89,93.81,329.48Z"/><path d="M293.41,329.48l1,3.85c-9.05,2.67-17.59,0-22.57-6.73-1.85-2.53-1.49-3.64,1.6-4.17C281.41,321.05,287.88,323.89,293.41,329.48Z"/><path d="M139.58,34c-4.51,8.5-12.28,12.4-21.33,10.95-3.19-.51-3.52-1.59-1.69-4.08,5.34-7.23,12.69-9,21.13-8.07C138,33.79,138.81,33.83,139.58,34Z"/><path class="cls-1" d="M195.61,382.33c.13-1-.32-2.25.84-3,5.55-4.63,11.4-8.45,19.17-7.2,1.48.24,3.43.11,4.07,1.4.84,1.72-1,2.94-2.05,4.11A18.74,18.74,0,0,1,195.61,382.33Z"/><path class="cls-1" d="M324.22,368.5c1.27-.76,2.95-1.12,3-3.06,4.15-2.31,7.93-5.46,12.95-5.77,3.61-.22,8.68-.68,9.66,2.61.9,3-3.73,5.38-6.81,6.88C336.74,372.23,330.37,372.28,324.22,368.5Z"/><path class="cls-1" d="M124.62,368.5c1.27-.76,2.95-1.12,3-3.06,4.15-2.31,7.93-5.46,13-5.77,3.61-.22,8.68-.68,9.66,2.61.9,3-3.73,5.38-6.81,6.88C137.15,372.23,130.77,372.28,124.62,368.5Z"/><path class="cls-1" d="M165.73,40l-.95-3.22c2.13-4.69,2.7-10.16,7.05-13.74,2.64-2.18,5.83-5.89,8.71-4,2.64,1.73.54,6.23-.69,9.18C177.25,34.49,172.77,38.87,165.73,40Z"/><path class="cls-1" d="M365.33,40c-.32-1.08-.63-2.15-.95-3.22,2.13-4.69,2.7-10.16,7-13.74,2.65-2.18,5.84-5.89,8.72-4,2.64,1.73.54,6.23-.69,9.18C376.84,34.49,372.37,38.87,365.33,40Z"/><path class="cls-1" d="M375.38,196.86c-.09,1-.18,1.95-.26,2.93-2.56,4.51-4.12,9.73-9,12.59-3.09,1.82-7.3,5-9.67,2.48-2.12-2.27.67-6.81,2.86-9.72A19.45,19.45,0,0,1,375.38,196.86Z"/><path d="M339.17,34c-4.5,8.5-12.27,12.4-21.32,10.95-3.19-.51-3.52-1.59-1.69-4.08,5.34-7.23,12.69-9,21.13-8.07C337.56,33.79,338.41,33.83,339.17,34Z"/><path class="cls-1" d="M165.73,239.63c-.32-1.07-.63-2.14-.95-3.22,2.13-4.69,2.7-10.16,7.05-13.74,2.64-2.18,5.83-5.89,8.71-4,2.64,1.73.54,6.24-.69,9.18C177.25,234.12,172.77,238.5,165.73,239.63Z"/><path class="cls-1" d="M365.33,239.63c-.32-1.07-.63-2.14-.95-3.22,2.13-4.69,2.7-10.16,7-13.74,2.65-2.18,5.84-5.89,8.72-4,2.64,1.73.54,6.24-.69,9.18C376.84,234.12,372.37,238.5,365.33,239.63Z"/><path class="cls-1" d="M175.78,196.86l-.26,2.93c-2.56,4.51-4.12,9.73-9,12.59-3.09,1.82-7.3,5-9.67,2.48-2.12-2.27.67-6.81,2.86-9.72A19.46,19.46,0,0,1,175.78,196.86Z"/><path d="M93.81,129.84c.32,1.29.64,2.58,1,3.86-9,2.67-17.6,0-22.58-6.74-1.85-2.52-1.49-3.63,1.6-4.16C81.81,121.42,88.28,124.26,93.81,129.84Z"/><path class="cls-1" d="M324.22,168.86c1.27-.76,2.95-1.11,3-3.05,4.15-2.31,7.93-5.46,12.95-5.77,3.61-.22,8.68-.68,9.66,2.61.9,3-3.73,5.37-6.81,6.87C336.74,172.6,330.37,172.65,324.22,168.86Z"/><path class="cls-1" d="M312.16,389.05c.1,1,.21,2,.31,3.06-9.88-.6-17.72-7.06-19.33-15.61-.55-2.93.28-3.65,3-3a20.07,20.07,0,0,1,14.07,11.61C310.81,386.44,310.93,388,312.16,389.05Z"/><path class="cls-1" d="M82.85,284.49c0,.8,0,1.6.05,2.4-2.31,8.31-7.18,14-16,15.86-2.72.58-3.2-.17-2.72-2.7A19.22,19.22,0,0,1,82.85,284.49Z"/><path class="cls-1" d="M282.45,284.49c0,.8,0,1.6.05,2.4-2.31,8.31-7.18,14-16,15.86-2.72.58-3.2-.17-2.72-2.7A19.22,19.22,0,0,1,282.45,284.49Z"/><path class="cls-1" d="M282.45,84.86c0,.8,0,1.6.05,2.39-2.31,8.31-7.18,14-16,15.86-2.72.59-3.2-.16-2.72-2.69A19.22,19.22,0,0,1,282.45,84.86Z"/><path class="cls-1" d="M112.56,389.05c.1,1,.21,2,.32,3.06-9.89-.6-17.73-7.06-19.34-15.61-.55-2.93.28-3.65,3-3a20.07,20.07,0,0,1,14.07,11.61C111.21,386.44,111.33,388,112.56,389.05Z"/><path class="cls-1" d="M82.85,84.86c0,.8,0,1.6.05,2.39-2.31,8.31-7.18,14-16,15.86-2.72.59-3.2-.16-2.72-2.69A19.22,19.22,0,0,1,82.85,84.86Z"/><path d="M43.7,227.75c-.26-1.05-.51-2.1-.77-3.15,9.08-.17,17.32,6.5,18.91,15.16.56,3-.18,3.88-3.28,3C50.66,240.62,45.57,235.81,43.7,227.75Z"/><path class="cls-1" d="M205.34,239.35c-.17,1.27-.35,2.55-.53,3.82-9.8-1.07-16.34-6.2-18.41-14.52-.3-1.21-1.36-2.63-.2-3.69s2.81-.35,4.22.06c5.92,1.71,9.92,5.58,12.6,11C203.59,237.23,203.13,239.3,205.34,239.35Z"/><path d="M243.3,227.75c-.26-1.05-.51-2.1-.77-3.15,9.08-.17,17.32,6.5,18.91,15.16.56,3-.18,3.88-3.28,3C250.26,240.62,245.17,235.81,243.3,227.75Z"/><path class="cls-1" d="M112.56,189.42c.1,1,.21,2,.32,3.06-9.89-.6-17.73-7.06-19.34-15.61-.55-2.93.28-3.65,3-3a20.11,20.11,0,0,1,14.07,11.62C111.21,186.81,111.33,188.39,112.56,189.42Z"/><path d="M43.7,28.12c-.26-1.05-.51-2.1-.77-3.15,9.08-.18,17.32,6.5,18.91,15.16.56,3-.18,3.88-3.28,3C50.66,41,45.57,36.18,43.7,28.12Z"/><path class="cls-1" d="M205.34,39.71c-.17,1.28-.35,2.55-.53,3.83C195,42.47,188.47,37.34,186.4,29c-.3-1.21-1.36-2.63-.2-3.69s2.81-.35,4.22.06c5.92,1.7,9.92,5.58,12.6,11C203.59,37.6,203.13,39.67,205.34,39.71Z"/><path d="M243.3,28.12c-.26-1.05-.51-2.1-.77-3.15,9.08-.18,17.32,6.5,18.91,15.16.56,3-.18,3.88-3.28,3C250.26,41,245.17,36.18,243.3,28.12Z"/><path class="cls-1" d="M312.16,189.42c.1,1,.21,2,.31,3.06-9.88-.6-17.72-7.06-19.33-15.61-.55-2.93.28-3.65,3-3a20.11,20.11,0,0,1,14.07,11.62C310.81,186.81,310.93,188.39,312.16,189.42Z"/><path class="cls-1" d="M204.38,154.48c.16,1-.55,2.09.3,3-10.3-1.2-16.83-6.95-18.68-16.21-.61-3-.11-4,3.16-3a20.29,20.29,0,0,1,13.47,12.19C203.2,151.81,203.2,153.4,204.38,154.48Z"/><path class="cls-1" d="M267.33,260.38c.39,1.29-.51,2.19-1,3.23a19,19,0,0,1-18.14-14.77c-.74-3.25.34-4,3.14-3.28a19.68,19.68,0,0,1,13.92,11.71C265.8,258.44,265.67,260,267.33,260.38Z"/><path class="cls-1" d="M67.73,260.38c.39,1.29-.51,2.19-1,3.23a19,19,0,0,1-18.15-14.77c-.74-3.25.34-4,3.14-3.28a19.68,19.68,0,0,1,13.92,11.71C66.2,258.44,66.07,260,67.73,260.38Z"/><path class="cls-1" d="M194.5,267.29l1.92-3.75c5.48-3,10.83-6.47,17.61-5.23,1.94.35,4.65.09,5.28,1.95.76,2.27-1.7,3.72-3.37,5C209.24,270.22,202.09,271.27,194.5,267.29Z"/><path class="cls-1" d="M194.5,67.66l1.92-3.75c5.48-3,10.83-6.47,17.61-5.23,1.94.35,4.65.09,5.28,2,.76,2.27-1.7,3.72-3.37,5C209.24,70.58,202.09,71.64,194.5,67.66Z"/><path class="cls-1" d="M67.73,60.75c.39,1.29-.51,2.19-1,3.22A19,19,0,0,1,48.62,49.21c-.74-3.25.34-4,3.14-3.29A19.72,19.72,0,0,1,65.68,57.64C66.2,58.8,66.07,60.36,67.73,60.75Z"/><path class="cls-1" d="M267.33,60.75c.39,1.29-.51,2.19-1,3.22a19,19,0,0,1-18.14-14.76c-.74-3.25.34-4,3.14-3.29a19.72,19.72,0,0,1,13.92,11.72C265.8,58.8,265.67,60.36,267.33,60.75Z"/><path class="cls-1" d="M266.47,373.32l-.05,3.05c-2.88,6.67-6.6,12.6-14.11,14.8-1.43.42-3.24,1.85-4.56.24-1-1.17-.19-2.83.24-4.27C250.49,378.85,257.51,373.59,266.47,373.32Z"/><path d="M84.82,35.85l-.46,0-.45-.1-1.26-.63C75.5,29.74,73.42,22.52,75.09,14c.72-3.65,2.3-3.94,4.83-1.35,5.71,5.86,7.62,12.63,5.16,20.52A3.25,3.25,0,0,0,84.82,35.85Z"/><path d="M282.25,35.15C275.1,29.74,273,22.52,274.69,14c.72-3.65,2.3-3.94,4.83-1.35,5.71,5.86,7.62,12.63,5.16,20.52a3.25,3.25,0,0,0-.26,2.72l-.46,0-.45-.1Z"/><path class="cls-1" d="M66.87,373.32l-.05,3.05c-2.88,6.67-6.6,12.6-14.1,14.8-1.44.42-3.25,1.85-4.57.24-1-1.17-.19-2.83.24-4.27C50.89,378.85,57.91,373.59,66.87,373.32Z"/><path class="cls-1" d="M203.62,354.77c.06.73.13,1.46.19,2.19q-14.52-2-17.6-15.47c-.29-1.26-1.15-2.71,0-3.71s2.55,0,3.73.44C197.82,341,202.59,346.36,203.62,354.77Z"/><path class="cls-1" d="M66.87,173.69l-.05,3c-2.88,6.68-6.6,12.61-14.1,14.81-1.44.42-3.25,1.85-4.57.24-1-1.17-.19-2.84.24-4.27C50.89,179.22,57.91,174,66.87,173.69Z"/><path class="cls-1" d="M316.52,82.65,314,84.76c-5.57,1.34-11.08,3.56-16.92,1.25-2.73-1.08-7-2-6.85-4.71.14-2.56,4.44-3.67,7.29-4.2C304.7,75.75,311.36,76.84,316.52,82.65Z"/><path class="cls-1" d="M316.52,282.29,314,284.4c-5.57,1.33-11.08,3.55-16.92,1.25-2.73-1.08-7-2-6.85-4.72.14-2.55,4.45-3.67,7.29-4.2C304.7,275.38,311.36,276.47,316.52,282.29Z"/><path class="cls-1" d="M138.8,62.8c-1.71-.38-1.82,1.48-2.85,2-3.94,1.56-7.3,4.57-11.74,4.91s-10.84.56-11.59-3c-.83-4,5.22-6,9.33-7.16A18.08,18.08,0,0,1,138.8,62.8Z"/><path class="cls-1" d="M116.92,282.29l-2.5,2.11c-5.57,1.33-11.08,3.55-16.92,1.25-2.73-1.08-7-2-6.85-4.72.15-2.55,4.45-3.67,7.29-4.2C105.1,275.38,111.76,276.47,116.92,282.29Z"/><path class="cls-1" d="M266.47,173.69c0,1,0,2-.05,3-2.88,6.68-6.6,12.61-14.11,14.81-1.43.42-3.24,1.85-4.56.24-1-1.17-.19-2.84.24-4.27C250.49,179.22,257.51,174,266.47,173.69Z"/><path class="cls-1" d="M116.92,82.65l-2.5,2.11C108.85,86.1,103.34,88.32,97.5,86c-2.73-1.08-7-2-6.85-4.71.15-2.56,4.45-3.67,7.29-4.2C105.1,75.75,111.76,76.84,116.92,82.65Z"/><path class="cls-1" d="M288.29,357.19c.1,1,.19,1.91.29,2.87-9.32.95-17.19-3.21-20.79-11.08-.52-1.12-1.74-2.38-.66-3.62.94-1.07,2.44-.72,3.77-.6C279.11,345.52,284.25,350.58,288.29,357.19Z"/><path d="M84.75,235.49c-8.33-3.5-12.82-15.3-9.15-23.43,1.26-2.81,2.33-1.38,3.63-.38,5.89,4.52,8.19,12.86,5.85,21.09Z"/><path class="cls-1" d="M88.69,357.19c.1,1,.19,1.91.29,2.87-9.32.95-17.19-3.21-20.79-11.08-.51-1.12-1.74-2.38-.66-3.62.94-1.07,2.44-.72,3.77-.6C79.52,345.52,84.65,350.58,88.69,357.19Z"/><path d="M284.34,235.49c-8.33-3.5-12.81-15.3-9.14-23.43,1.26-2.81,2.33-1.38,3.63-.38,5.89,4.52,8.19,12.86,5.85,21.1C284.57,233.68,284.46,234.58,284.34,235.49Z"/><path class="cls-1" d="M335.38,192.73l-.25,3.12c-2.62,4.13-3.94,9.2-8.47,12-3.21,2-7.65,5.47-10.12,3-2.31-2.31.77-7,3.08-10.07A19,19,0,0,1,335.38,192.73Z"/><path class="cls-1" d="M288.29,157.56l0,2.82c-8.92,1-16.83-3.13-20.47-10.9-.53-1.13-1.73-2.37-.78-3.65s2.41-.89,3.72-.71c6.41.87,11.7,3.57,15.18,9.26C286.65,155.5,287.51,156.5,288.29,157.56Z"/><path class="cls-1" d="M88.69,157.56c.1,1,.19,1.91.29,2.87-9.32.95-17.19-3.21-20.79-11.08-.51-1.12-1.74-2.39-.66-3.63.94-1.06,2.44-.72,3.77-.59C79.52,145.89,84.65,151,88.69,157.56Z"/><path class="cls-1" d="M237.65,333.38c1.76-.53,2.91-.15,2.87,2,2.89,6.94,3.29,13.77-.74,20.48-1.62,2.71-2.84,3.27-4.75.06C230.6,348.44,231.67,338.11,237.65,333.38Z"/><path class="cls-1" d="M237.65,133.74c1.76-.52,2.91-.14,2.87,2,2.89,6.94,3.29,13.77-.74,20.48-1.62,2.71-2.84,3.27-4.75.06C230.6,148.8,231.67,138.48,237.65,133.74Z"/><path class="cls-1" d="M38.05,133.74c1.76-.52,2.91-.14,2.87,2,2.89,6.94,3.29,13.77-.73,20.48-1.63,2.71-2.85,3.27-4.76.06C31,148.8,32.07,138.48,38.05,133.74Z"/><path class="cls-1" d="M135.79,192.73c-.09,1-.17,2.08-.25,3.12-2.63,4.13-3.95,9.2-8.48,12-3.21,2-7.65,5.47-10.12,3-2.31-2.31.77-7,3.08-10.07C124,195.57,129.17,192.71,135.79,192.73Z"/><path class="cls-1" d="M38.05,333.38c1.76-.53,2.91-.15,2.87,2,2.89,6.94,3.29,13.77-.73,20.48-1.63,2.71-2.85,3.27-4.76.06C31,348.44,32.07,338.12,38.05,333.38Z"/><path class="cls-1" d="M356.09,61.65,356,64.17c-8.89-.5-15.2-5.08-18-13.11-.54-1.55-1.48-3.38-.27-4.69s3.1-.41,4.65.09C349.86,48.86,353.65,54.64,356.09,61.65Z"/><path class="cls-1" d="M136.82,261.62c0,1,.22,2.15-.87,2.86-3.94,1.56-7.28,4.55-11.72,4.91s-10.83.56-11.6-3c-.86-4,5.17-6,9.26-7.17C127.12,257.78,132.31,257.9,136.82,261.62Z"/><path class="cls-1" d="M356.09,261.29,356,263.8c-8.89-.5-15.2-5.08-18-13.11-.54-1.55-1.48-3.37-.27-4.69s3.1-.4,4.65.09C349.86,248.49,353.65,254.28,356.09,261.29Z"/><path class="cls-1" d="M336.33,62c.13,1.06.41,2.16-.78,2.87-3.35.89-5.77,3.65-9.28,4.37-3,.62-5.91,1-8.82.21-2.12-.6-5.52-.36-5.69-2.94-.14-2,2.61-3.62,4.67-4.72C323.08,58.24,329.75,57,336.33,62Z"/><path class="cls-1" d="M84.82,35.85a3.25,3.25,0,0,1,.26-2.72c5.23-3.48,10.31-7.33,17.19-6.38,1.14.16,2.32.14,3.45.37,3.32.67,4.76,1.78,1.68,4.94C101.4,38.22,91.91,40,84.82,35.85Z"/><path class="cls-1" d="M284.34,235.49c.12-.91.23-1.81.34-2.71,5.36-3.63,10.64-7.51,17.71-6.37,1.46.24,2.92.52,4.37.83,2.18.46,2.69,1.31,1.19,3.35C302.94,237.4,292,239.76,284.34,235.49Z"/><path class="cls-1" d="M257.28,119.54a2.76,2.76,0,0,1-.93,2.35c-8.85-.25-17-7.9-17.65-16.47-.21-2.55.93-2.89,2.92-2.31C248,105,252.78,108.78,255.4,115,256,116.53,256.65,118,257.28,119.54Z"/><path class="cls-1" d="M57.68,119.54a2.76,2.76,0,0,1-.93,2.35c-8.85-.25-17-7.9-17.65-16.47-.21-2.55.93-2.89,2.92-2.31C48.41,105,53.18,108.78,55.81,115,56.44,116.53,57.06,118,57.68,119.54Z"/><path class="cls-1" d="M156.49,261.29l-.12,2.51c-8.89-.5-15.2-5.08-18-13.11-.54-1.55-1.48-3.37-.27-4.69s3.1-.4,4.66.09C150.26,248.49,154.05,254.28,156.49,261.29Z"/><path class="cls-1" d="M156.49,61.65l-.12,2.52c-8.89-.5-15.2-5.08-18-13.11-.54-1.55-1.48-3.38-.27-4.69s3.1-.41,4.66.09C150.26,48.86,154.05,54.64,156.49,61.65Z"/><path class="cls-1" d="M284.42,35.85a3.25,3.25,0,0,1,.26-2.72c5.23-3.48,10.31-7.33,17.19-6.38,1.14.16,2.32.14,3.45.37,3.32.67,4.76,1.78,1.67,4.94C301,38.22,291.51,40,284.42,35.85Z"/><path class="cls-1" d="M257.28,319.17a2.76,2.76,0,0,1-.93,2.35c-8.85-.25-17-7.89-17.65-16.47-.21-2.55.93-2.89,2.92-2.3,6.39,1.88,11.16,5.66,13.78,11.91C256,316.16,256.65,317.67,257.28,319.17Z"/><path class="cls-1" d="M57.68,319.17a2.73,2.73,0,0,1-.93,2.34c-8.84-.23-17-7.89-17.65-16.46-.21-2.55.94-2.89,2.93-2.3,6.38,1.88,11.15,5.66,13.78,11.91C56.44,316.16,57.06,317.67,57.68,319.17Z"/><path class="cls-1" d="M299.67,196.59c-5.52,4.79-11.48,8.43-19.26,7.17-1.6-.26-3.7-.12-4.29-1.75-.51-1.41,1.17-2.6,2.14-3.69,5.41-6.1,14.25-7.88,22.22-4.56C300.27,194.72,300.77,195.88,299.67,196.59Z"/><path class="cls-1" d="M100.07,196.59c-5.52,4.79-11.47,8.43-19.26,7.17-1.6-.26-3.7-.12-4.28-1.75-.52-1.41,1.16-2.6,2.13-3.69,5.41-6.1,14.25-7.88,22.22-4.56C100.67,194.72,101.17,195.88,100.07,196.59Z"/><path class="cls-1" d="M84.75,235.49l.33-2.72c5.36-3.62,10.64-7.5,17.71-6.36,1.46.24,2.92.52,4.37.83,2.18.46,2.69,1.31,1.19,3.35C103.34,237.4,92.35,239.76,84.75,235.49Z"/><path class="cls-1" d="M336.42,261.62c0,1,.22,2.15-.87,2.86-3.94,1.56-7.28,4.55-11.72,4.91s-10.83.56-11.6-3c-.87-4,5.17-6,9.26-7.17C326.72,257.78,331.91,257.9,336.42,261.62Z"/><path class="cls-1" d="M339.17,34c-.76-.19-1.61-.23-1.88-1.2-6.81-4.8-9.86-11.34-9-19.66.13-1.32.16-3,1.41-3.5s2.41.8,3.45,1.59C339.87,16.39,342.28,25.51,339.17,34Z"/><path class="cls-1" d="M339.17,233.65c-.76-.19-1.61-.23-1.88-1.19-6.81-4.81-9.86-11.35-9-19.66.13-1.33.16-3,1.41-3.51s2.41.8,3.45,1.59C339.87,216,342.28,225.14,339.17,233.65Z"/><path class="cls-1" d="M139.58,233.65c-.77-.19-1.62-.23-1.89-1.19-6.81-4.81-9.86-11.35-9-19.66.13-1.33.16-3,1.41-3.51s2.41.8,3.45,1.59C140.27,216,142.68,225.14,139.58,233.65Z"/><path class="cls-1" d="M139.58,34c-.77-.19-1.62-.23-1.89-1.2-6.81-4.8-9.86-11.34-9-19.66.13-1.32.16-3,1.41-3.5s2.41.8,3.45,1.59C140.27,16.39,142.68,25.51,139.58,34Z"/><path class="cls-1" d="M135.6,132.63l-.6,4.62c-10.1-1.26-16.43-6.55-18.69-15-1-3.65.43-4.15,3.35-3.43,6,1.47,10.16,5.16,13.1,10.49C133.44,130.56,133,133,135.6,132.63Z"/><path class="cls-1" d="M335.2,332.26l-.6,4.63c-10.1-1.27-16.44-6.55-18.69-15-1-3.65.43-4.15,3.35-3.43,6,1.48,10.16,5.16,13.1,10.5C333,330.19,332.64,332.58,335.2,332.26Z"/><path class="cls-1" d="M135.6,332.26l-.6,4.63c-10.1-1.27-16.43-6.55-18.69-15-1-3.65.43-4.15,3.35-3.43,6,1.48,10.16,5.16,13.1,10.5C133.44,330.19,133,332.58,135.6,332.26Z"/><path class="cls-1" d="M335.2,132.63l-.6,4.62c-10.1-1.26-16.44-6.55-18.69-15-1-3.65.43-4.15,3.35-3.43,6,1.47,10.16,5.16,13.1,10.49C333,130.56,332.64,133,335.2,132.63Z"/><path d="M133.73,302.49c6.72-2.52,13.33-3.38,19.87.76,2.59,1.65,2.22,2.59,0,4.1-6.69,4.44-14.9,3.84-22-1.77Z"/><path d="M333.33,302.49c6.72-2.52,13.33-3.38,19.86.76,2.6,1.65,2.23,2.59,0,4.1-6.69,4.44-14.9,3.84-22-1.77Z"/><path d="M133.73,102.86c6.72-2.52,13.33-3.38,19.87.76,2.59,1.65,2.22,2.59,0,4.1-6.69,4.43-14.9,3.83-22-1.77Z"/><path d="M333.33,102.86c6.72-2.52,13.33-3.38,19.86.76,2.6,1.65,2.23,2.59,0,4.1-6.69,4.43-14.9,3.83-22-1.77Z"/><path d="M11.86,15.07l2.11-2L15,12l-.06.08c5.76-2,11.54-3.1,17.28,0,1.41.76,3.69,1.24,3.66,2.93,0,1.88-2.3,2.57-3.9,3.24C24.69,21.29,17.86,20.72,11.86,15.07Z"/><path d="M15,211.69c6.29-2.28,12.45-3,18.61.67,2.84,1.7,3.26,2.73.18,4.64-6.77,4.19-15.39,3.39-21.94-2.31l2.12-2L15,211.61Z"/><path d="M211.46,15.07l2.11-2c.35-.36.71-.71,1.07-1.07l-.06.08c5.76-2,11.54-3.1,17.28,0,1.41.76,3.69,1.24,3.66,2.93,0,1.88-2.3,2.57-3.9,3.24C224.29,21.29,217.46,20.72,211.46,15.07Z"/><path d="M214.6,211.69c6.29-2.28,12.45-3,18.61.67,2.84,1.7,3.26,2.73.18,4.64-6.77,4.19-15.39,3.39-21.94-2.31l2.12-2c.35-.36.71-.71,1.07-1.07Z"/><path class="cls-1" d="M333.33,102.86,331.14,106c-6.3-6.69-7.27-15.78-2.58-22.75,1.6-2.38,2.58-2.4,4.15.11C336.77,89.77,335.72,96.27,333.33,102.86Z"/><path class="cls-1" d="M333.33,302.49l-2.19,3.09c-6.3-6.69-7.27-15.78-2.58-22.75,1.6-2.37,2.58-2.39,4.15.11C336.77,289.4,335.72,295.9,333.33,302.49Z"/><path class="cls-1" d="M133.73,102.86,131.54,106c-6.3-6.69-7.27-15.78-2.58-22.75,1.6-2.38,2.58-2.4,4.15.11C137.17,89.77,136.12,96.27,133.73,102.86Z"/><path class="cls-1" d="M133.73,302.49l-2.19,3.09c-6.3-6.69-7.27-15.78-2.58-22.75,1.6-2.37,2.58-2.39,4.15.11C137.17,289.4,136.12,295.9,133.73,302.49Z"/><path class="cls-1" d="M213.57,212.68l-2.12,2c-5.68-6.33-6.8-14.71-2.79-21.51.64-1.08,1.07-2.75,2.62-2.63s1.94,1.66,2.58,2.81c2.56,4.64,2.39,9.55,1.33,14.52-.27,1.26-1.21,2.41-.59,3.81l0-.08C213.89,211.57,213.65,212.05,213.57,212.68Z"/><path class="cls-1" d="M14,212.68l-2.12,2c-5.68-6.33-6.8-14.71-2.79-21.51.64-1.08,1.07-2.75,2.62-2.63s2,1.66,2.58,2.81c2.56,4.64,2.39,9.55,1.33,14.52-.27,1.26-1.21,2.41-.59,3.81l0-.08C14.29,211.57,14.05,212.05,14,212.68Z"/><path d="M107.69,199.67c4,4.79,4.76,10.19,3.44,16.16-.74,3.36-2.1,3.15-4.22,1.26C102,212.7,99,207.5,99.84,200.63,102.48,200.46,105.22,201.18,107.69,199.67Z"/><path d="M307.29,199.67c4,4.79,4.76,10.19,3.44,16.16-.74,3.36-2.1,3.15-4.22,1.26-4.92-4.39-7.92-9.59-7.07-16.46C302.08,200.46,304.82,201.18,307.29,199.67Z"/><path d="M107.69,199.67c-2.47,1.51-5.21.79-7.85,1,.08-1.35.16-2.69.23-4,1.1-.71.6-1.87.81-2.83A11.48,11.48,0,0,1,107.69,199.67Z"/><path d="M307.29,199.67c-2.47,1.51-5.21.79-7.85,1,.08-1.35.15-2.69.23-4,1.1-.71.6-1.87.81-2.83A11.51,11.51,0,0,1,307.29,199.67Z"/><path class="cls-1" d="M282.25,35.15l1.26.63A.92.92,0,0,1,282.25,35.15Z"/><path class="cls-1" d="M56.79,321.53l1.2.65C57.37,322.37,56.9,322.26,56.79,321.53Z"/><path class="cls-1" d="M82.65,35.15l1.26.63A.92.92,0,0,1,82.65,35.15Z"/><path class="cls-2" d="M15,12,14,13.05C14.05,12.41,14.28,11.93,15,12Z"/><path class="cls-1" d="M215.57,0h-9c-.69,5.77.47,11,4.87,15.07l2.11-2h0l1-1v0l.06-.08h-.06C214.74,8,216.74,4.12,215.57,0Z"/><path class="cls-2" d="M14,212.68c.08-.63.32-1.11,1.07-1.07Z"/><path class="cls-2" d="M213.57,212.68c.08-.63.32-1.11,1.07-1.07Z"/></g></g></svg>