<svg xmlns="http://www.w3.org/2000/svg" viewBox="0 0 1033.4 254.46"><defs><style>.cls-1{fill:#d3e2de;}</style></defs><title>theme-button-dark-fill</title><g id="Layer_2" data-name="Layer 2"><g id="Layer_1-2" data-name="Layer 1"><path class="cls-1" d="M109.52,2.62C170,9.44,300.92,15.38,357.42,13.56S541.52-2.85,585.27,2.62,743.85,3.83,767.55,1.4,835,.18,875.09,1.4s82,5.78,107.55,12.61S1030,47.18,1030,65s5.47,34.23,0,59.75-.61,54.68,2.43,60.15,0,40.1-28,47.39-41.92,20.05-85.67,9.12-91-2.25-140.35,3.64c-41.28,4.93-125.78-4.54-189.57-.45s-139.17,11.67-184.11,9.46c-52.94-2.6-109.36-2.13-144-3.75s-91.13,9.12-140.35.11S7.45,265.1,11.09,212.24c2-29.32-12.76-85.67-10.93-105.72S5,85.05,1.57,65s9.28-39.48,27.75-51.44S69.18-1.92,109.52,2.62Z"/></g></g></svg>