<svg xmlns="http://www.w3.org/2000/svg" viewBox="0 0 1404.57 79.43"><defs><style>.cls-1{fill:#d89a75;}</style></defs><title>theme-button-light-border-large</title><g id="Layer_2" data-name="Layer 2"><g id="Layer_1-2" data-name="Layer 1"><path class="cls-1" d="M1389.77,36c-17.31-.05-34.63,0-51.94-.59-13.8-.5-27.63-.61-41.35-2.21-12.71-1.48-25.36-3.49-38.07-5-22.83-2.64-45.82-2.86-68.75-3.76-24-.95-47.94-.37-71.92-1-26.47-.66-53-.24-79.43-1-25.79-.72-51.58-1.39-77.37-2.35-32.75-1.21-65.49-2.69-98.25-3.8-14.43-.49-28.79-1.24-42.86-5.62h42.22c-11.07-4.19-31-5.69-41.84-3.93-2,.32-4,.8-5.91,0-4.44-1.89-9.12-1.86-13.77-1.74-8.82.22-17.65.69-26.44.8-33.64.42-67.3.25-101,.15-3.77,0-8.24.13-11.12-1.74a17.57,17.57,0,0,0-8.53-2.93A384.58,384.58,0,0,0,601.57.48C575,1.73,548.45,3.81,521.87,4.94c-21.12.9-42.28.3-63.42,1-14.14.46-28.34.35-42.41,1.61-29.84,2.68-59.7,4.79-89.64,5.39-22,.44-43.91.66-65.8,3.08-22.63,2.52-45.3,4.86-68,6.64-12.08.94-24.27,2.5-36.38,1.28-12.88-1.3-25.56-.28-38.32,1-12.91,1.26-25.82,3-38.84,2.3-5.12-.27-10.47-2.49-14.3,3.29-.53.8-2.82.57-4.29.58-7.34,0-14.59,1.12-21.87,1.78-8.92.8-17.82,2.17-26.82,1.8-3.11-.13-7.64-2.57-8.48,1.93-.89,4.74,4.37,4.35,7.49,5.31,2.32.71,5.15-.47,7.46,1.77-4.7,1.19-9-1-14.27,0,12.6,8.72,27.3,6.11,40,10.87-7.44,1.07-14.77.45-22.16,0S7.42,51.16,0,50.63A30.21,30.21,0,0,0,4.94,53c2.29,1,4.31,2.5,3.38,5.26-1,3.07.67,3.77,2.91,4.49a91.06,91.06,0,0,0,26,4.15c16.63.34,33.35-.49,49.81,2.48a621.11,621.11,0,0,0,123.05,9.92c26.36-.52,52.37-4.29,78.52-6.73,19.49-1.82,38.86-1.27,58.3-.06,17.26,1.07,34.52,2.27,51.79-.17,7.08-1,14.25-2.2,21.33-2s13.52-1.67,20.36-2c16.61-.79,33.28-.25,49.84-2.23,3.27-.39,6.44-1.53,9.88-.84a74,74,0,0,0,20.35,1.51C531.76,66,543,65.08,554.29,64c16-1.5,32-1.21,47.93-1.08,13.47.12,26.73-2.34,40.21-2.07,18.36.37,36.63,1.27,54.94,3.09,22.21,2.21,44.6,1,66.91,1.07,2.18,0,4.53-2.22,5.35-1.58,3.71,2.88,8-2.23,11.42,1.23a1.9,1.9,0,0,0,1.84,0c2-2.72,4.45-1.2,6.8-1,1.63.16,3.29.72,4.91-.09,6.37-3.22,13.67,4,19.82-1.75,4.38,4.28,9.44.3,14.18,1,3.87.61,7.86,1.6,11.9.9,5.13-.89,10.09-2.71,15.48-.12a6.51,6.51,0,0,0,7.43-1.4c.46-.51.89-1.12,1.6-.68,3.93,2.51,8.26.93,12.19.58,3.66-.34,6.24,2.35,9.66,1.83,9.59-1.47,19,3.62,28.67.67.28-.08.65.1,1,.13,10.45,1,20.73,5.84,31.43,1.39a1.33,1.33,0,0,1,1,.09c8.16,4,17-2.2,25.2,1.74a1.6,1.6,0,0,0,1.44-.2c4.27-4,9.38-.69,13.24-.15a130.49,130.49,0,0,0,34.7.1c3.77-.48,7.39-1.4,11.25-.69,10.86,2,21.84,2.25,32.83,1.88,14-.47,27.92-1.56,41.88-1.6,13.63,0,27.26,1.44,40.88,1.31,22.29-.22,44.55-1.38,66.82-2.38q39.9-1.8,79.75-4c24.42-1.36,48.87-2.2,73.3-3.3,1,0,2.35.52,3.25-1.08-1.28-1.58-.73-4.69-3.85-4.88-6.16-.4-12.7,1.62-18.17-3-20-1.42-40-.82-59.92-.46-15,.26-29.92.81-44.88,1.23-22.79.55-45.58.76-68.35-1,22.17-3.58,44.34.92,66.49-.5,3.94-3.93,9-3.12,13.8-3.2,4.31-.06,9,1.27,12.79-1,7.06-4.26,14.37-3.14,21.8-2.43,5.3.51,10.69,1.25,15.84-.55a21.32,21.32,0,0,1,10.33-.82,80.47,80.47,0,0,0,14.45.73c10.47-.37,20.9,1.31,31.32.8,6.32-.31,12.57-1.09,18.88-.19,1,.15,3.11.53,2.2-1.23-2-3.91,1.53-2.93,2.69-3,3.47-.36,7-.18,10.48-.24,1.88,0,3.78-.06,5.22-2.18C1399.28,34.57,1394.53,36,1389.77,36Z"/></g></g></svg>