<svg xmlns="http://www.w3.org/2000/svg" viewBox="0 0 1401.88 79.64"><defs><style>.cls-1{fill:#d3e2de;}</style></defs><title>theme-button-dark-border-large</title><g id="Layer_2" data-name="Layer 2"><g id="Layer_1-2" data-name="Layer 1"><path class="cls-1" d="M1400.39,36.06c-31.27,0-62.52.28-93.76-1.77-8.62-.56-17.23-1.37-25.71-2.56-15.24-2.14-30.45-4.64-45.81-5.48-19.56-1.06-39.16-1.61-58.75-2.08-30.95-.74-61.92.76-92.87-.93-18.59-1-37.25.55-55.88-1-12.07-1-24.23-.3-36.38-.87-18.22-.85-36.49-.64-54.72-2.13S900,18.17,881.77,17.34c-11.43-.53-22.92-.82-34.36-1.4-9.9-.49-19.9-1.32-29.45-5.3h41.26a104.51,104.51,0,0,0-38.37-4.37c-2.94.2-5.82,1.5-8.82.44-4.31-1.52-8.79-1.44-13.28-1.67-6.69-.34-13.21,1.16-19.86,1.13-18.83-.08-37.66,0-56.49,0-5,0-10.06-.46-15,.19-13.65,1.8-27.13-.26-40.69-.79-5.28-.2-8.89-4.19-13.77-4.25-5.83-.07-11.59-.81-17.38-1.08-18.47-.87-36.89,1.17-55.35,1a12.46,12.46,0,0,0-1.5.05C563,3.3,547.05,3.74,531.21,4.9c-18.88,1.39-37.89.36-56.86.92-19.27.57-38.55,1.65-57.84,1.35a19.11,19.11,0,0,0-2,.08C400,8.54,385.49,9.88,371,11.1c-12.9,1.09-25.86,1.41-38.78,1.78-27.7.8-55.38,1-83,4-14.63,1.63-29.22,3.81-44,4.6-4.74.26-9.59.65-14.36,1-12.41.84-24.92,2.83-37.28,1.34-12.06-1.46-23.91-.3-35.76.67C102,25.8,86.26,28.76,70.3,26.17a5.16,5.16,0,0,0-5.19,2.29c-1.69,2.22-3.91,2.82-6.59,2.67a62.7,62.7,0,0,0-7,.07c-15.47.84-30.72,5-46.38,2.92-1.7-.23-3.45,0-4,2.09-.6,2.23.72,3.39,2.55,4.23a19.17,19.17,0,0,0,9.23,1.67c0,.64,0,1.28,0,1.91A27.61,27.61,0,0,1,3,43.09c-.72.3-.75.63,0,1,7.08,5.46,15.63,5.89,24,7,5.19.68,10.45,1,15.2,3.7C27.75,57.79,14,53.23,0,51.27c2.66,2,7.58,1.84,6.29,6.91-.79,3.07.71,3.8,3,4.51A94,94,0,0,0,36.17,67c9.66.17,19.35-.3,29,.21,17.54.91,34.76,4.6,52.09,7.13,26.52,3.87,53.17,5,79.83,5.3a337,337,0,0,0,34.28-1.38c11.71-1.09,23.45-2.12,35.1-3.52,16.48-2,33-3.57,49.53-3.47,15.38.1,30.78,1.26,46.15,2.59,17.94,1.56,35.77-1.36,53.54-3.47,6.36-.75,13.43,2,19.16-3,.13-.12.6.18.91.22,9.19,1.12,18.38.15,27.57.13,13.87,0,27.63-3.36,41.53-1.54a68.88,68.88,0,0,0,10.9.82c15.74-.45,31.32-3.05,47-3.81,13.3-.64,26.66-.4,40-.14,13,.26,25.85-3.16,39-2.13,7.45.58,15-.32,22.47.32,13.37,1.14,26.77,1.8,40.1,3.57,7.53,1,15.31.19,23,.2s15.38-.5,23,.17,14.82-2.34,22.28-.4c.92.24,1.2-.88,1.32-1.73,2.62-.52,4.94,2.88,7,1.49,2.67-1.83,4.87-1.3,7.46-.68,1.09.26,3.11.36,3.32-.11,1.21-2.58,2.58-1.08,4.36-1,3.66.21,7.21,1.35,10.85,1.22,3.29-.11,6.33-1.05,9.93-.55,3.44.49,7.52-.38,11.32-.36,4.11,0,8.57,2.47,12.24.41C847.77,59.33,856,68,863,61.71c.06-.05.31.09.46.16,6.62,3.31,13.77.23,20.79,1.61,4.69.92,10,.27,14.84,2.15a8.34,8.34,0,0,0,4.92.17,42.46,42.46,0,0,1,16.77,0c6.34,1.15,12.68,3.47,19.17,1.91a29.5,29.5,0,0,1,12.55-.11c6.83,1.2,13.9-2.4,20.84.35,4.67-4,9.8-.43,14.32,0,10.3.9,20.43,1.56,30.71.29,5-.61,9.81-2.55,15.13-1.15,6.08,1.6,12.42,1.74,18.72,2,20.73,1,41.37-1.54,62.11-1.33,17.07.17,34.09,1.65,51.25.58,17.36-1.07,34.8-1.08,52.19-2.12,13.4-.8,26.83-1.36,40.25-2q27.32-1.34,54.62-3c18.21-1.11,36.47-1.43,54.71-2.19,1.35-.06,3.93,1.22,3.79-1.52-.09-1.73-.82-4.17-3.36-4.35-6.24-.42-12.27-.09-18.59-2.58-4.57-1.81-10.7-1.64-16.19-1.44-12.46.44-24.91.16-37.38.65-16.92.66-33.89,1-50.84,1.28l-2-1.92c4-3.88,9.07-2.85,13.9-3.06,4.28-.18,8.92,1.31,12.78-1,4.9-2.88,10-3.12,15.37-3,6,.09,11.87,1.74,17.88,1,4.58-.55,8.91-2.77,13.7-2,11.41,1.93,22.93.47,34.37,1.06,4.29.23,8.49,2.09,12.85.85,4.75-1.36,9.69-.27,14.33-1.19,1.7-.34,7.16,5.18,5.91-2.59-.1-.64,2.21-1.13,3.59-1.12,3.16,0,6.33,0,9.49,0,1.77,0,3.71.32,4.92-1.71A8.73,8.73,0,0,0,1400.39,36.06Zm-158.86,13a3,3,0,0,0-.8.14A3,3,0,0,1,1241.53,49.08Zm-.79,2c-21.46-.11-42.94.38-64.36-1.23,21.17-4,42.19,1.26,63.3.16a2.14,2.14,0,0,1,.67-.59,2.14,2.14,0,0,0-.67.59l1.06,1.07Z"/></g></g></svg>