<svg xmlns="http://www.w3.org/2000/svg" viewBox="0 0 1380.72 27.16"><defs><style>.cls-1{fill:#f2d4c7;}</style></defs><title>theme-button-large-border-small</title><g id="Layer_2" data-name="Layer 2"><g id="Layer_1-2" data-name="Layer 1"><path class="cls-1" d="M1329.94,24.91c1.29-1.54,3.06-.95,4.64-1,5.45-.07,10.91,0,16.36-.05h29.78v-1h-29.79a4.09,4.09,0,0,0-3.45-1l-.73.05-.72,0q-.36,0-.72,0c-6.47-.75-12.94,2.57-19.41,0l-17-.09a2.32,2.32,0,0,0-.49-.53c-.49-.35-1-.18-1.48.53-4.47-.11-8.94-.33-13.41-.52l-4.46-.19c-18.23-.7-36.48-1-54.7-2.15-12.6-.78-25.22-.07-37.86-.79-18.16-1-36.41-.35-54.62-1.21-16.76-.79-33.54.38-50.35-.84-18.22-1.33-36.54.24-54.84-1-15-1-30.08-.16-45.13-1.07-14.42-.87-28.89.28-43.36-.95-13.55-1.14-27.2-.08-40.85-.9-17.06-1-34.24.15-51.33-1.24.84-2.23-.73-2-2-2-10.35.31-20.63-1.77-31-1l-8,0c-2.93.83-5.86.45-8.78.18-1-.09-2-.16-2.93-.18-19.13-.32-38.26-.17-57.38-1-23.1-1-46.22.41-69.36-.9-17.15-1-34.36-1.84-51.55-2.08-33.45-.46-66.91.12-100.36-1.07-4.42-.15-8.82.21-13.25.11-21.55-.49-43.1-.46-64.65-.94-48-1.06-96.07-.08-144.12-.94C226.85,0,151.06,2.24,75.29,0c-8-.24-15.9,1-23.87,1C34.27,1,17.12,1,0,1A5.68,5.68,0,0,0,4.66,3c1.77,0,3.54,0,6.69,0C8,4.71,5.44,3.13,2.87,5.63c4.91.53,8.94,1.17,13,1.36,10.62.47,21.27.47,31.89.7q38.58.83,77.08,3.23c12.26.79,24.57.2,36.89.8,19.92,1,39.9.32,59.86,1.06,13.44.5,26.92,0,40.39-.51a392.82,392.82,0,0,1,45.38.49c15.07,1.14,30.26.76,45.37.93,64.27.72,128.55-.06,192.81,1.3,16.29.35,32.59.27,48.89.67,35.23.84,70.48.46,105.71,2.12,21,1,42.21-.49,63.25.58,11.43.58,22.81,0,34.21.49,17.54.71,35.1,1,52.66,1,22.92.08,45.81.92,68.72,1.88,20.33.85,40.72.18,61.09,1.11,17.93.82,35.89-.41,53.86.9,16.07,1.17,32.23-.05,48.38.93,19.91,1.2,39.9.15,59.87.95,33.59,1.35,67.23.09,100.86,1,39.11,1,78.26.29,117.39.32h4.35c0-.42,0-.84,0-1.27C1353.08,26.87,1341.55,24.87,1329.94,24.91Z"/></g></g></svg>