<svg xmlns="http://www.w3.org/2000/svg" viewBox="0 0 1398.52 26.68"><defs><style>.cls-1{fill:#455d59;}</style></defs><title>theme-button-dark-border-small</title><g id="Layer_2" data-name="Layer 2"><g id="Layer_1-2" data-name="Layer 1"><path class="cls-1" d="M1326.5,21.8l-16.93,0c-1.81-.23-3.62-.59-5.44-.66-28.75-1-57.49-2.21-86.24-2.95-36.91-1-73.83-1.59-110.74-2.33q-68.85-1.37-137.7-2.71Q913.08,12,856.72,10.67c-1.48-2.52-6-2.59-9.18-.13l-5.64-.38c-.27-1.81-1.39-2.33-3.14-2.3-5.1.1-10.21.06-15.31.07-26.63-.35-53.25-.94-79.88-1C693,6.76,642.41,3.68,591.81,3.31,545.67,3,499.54,2.76,453.4,2c-48.3-.76-96.61-.23-144.92-.94-63.8-.95-127.61.25-191.41-.77C93.29,0,69.5.1,45.72.33,30.91.47,16.1,1.08,1.29,0,.76,0-.09-.16,0,1c1.31.52,3.82,1,3.87,1.6.36,5.12,4.3,3,6.61,3.19,15.93,1.41,31.93,1,47.9,1.6C93,8.68,127.56,10.35,162.17,11.24c34.45.88,68.92,1.48,103.4.77,34.64-.71,69.25,1.1,103.88,1.55,21.15.28,42.31-.14,63.47,0,31.31.25,62.61,1.19,93.92,1,35.3-.17,70.59,1,105.9.73,21.11-.16,42.23,1.38,63.36,1.89,24.45.59,48.9,1.14,73.35,1.22,27.38.1,54.75.88,82.12,1,19.3.06,38.56,1,57.85,1.32,23.6.38,47.2,1.25,70.8,1.75,18.13.38,36.27.45,54.4.77,40.78.71,81.56,1.67,122.35,2.2,37.14.48,74.29.54,111.43.76q41.49.25,83,.44c5.11,0,10.22,0,15.33,0-12-.46-24-2.41-36.06-2.14a7.93,7.93,0,0,1-.07-.84h48.57V22.61h-26.57C1343.92,21,1335.2,21.76,1326.5,21.8Zm.06.83-10.06.2h0Zm-8.74,1.83c.73.1,1.47.19,2.21.24C1319.29,24.65,1318.55,24.56,1317.82,24.46Z"/><path class="cls-1" d="M1398.51,22.86h-15.83c0,.17,0,.35,0,.52h15.86Z"/></g></g></svg>