<svg xmlns="http://www.w3.org/2000/svg" xmlns:xlink="http://www.w3.org/1999/xlink" viewBox="0 0 163.79 197.01"><defs><style>.cls-1{fill:url(#linear-gradient);}</style><linearGradient id="linear-gradient" x1="81.9" x2="81.9" y2="197.01" gradientUnits="userSpaceOnUse"><stop offset="0" stop-color="#518a7b"/><stop offset="1" stop-color="#96b9af"/></linearGradient></defs><title>my-little-montessorian-login-icon</title><g id="Layer_2" data-name="Layer 2"><g id="Capa_1" data-name="Capa 1"><path class="cls-1" d="M163.79,186.18c-.14-2.12-.23-3.34-.3-4.46-1.21-18.39-2.47-37.46-9.19-51-7.93-16-17.84-28.17-31.71-36.07a70.35,70.35,0,0,0-14.7-6.24A51.19,51.19,0,0,0,123.47,76.1a39.91,39.91,0,0,0,9.28-29.48v0h0v-.09c-1.32-16.88-7.68-29.12-18.23-36.9l-.42-.28C103.81,1.94,89.9-1,73.12.3H73a52.07,52.07,0,0,0-7.83,1.21A43.1,43.1,0,0,0,38,20.67,49.78,49.78,0,0,0,32,58.15h0C34.91,70.62,43.83,80.59,55,87A56,56,0,0,0,28.1,101.42C19,110.28,13.38,121.59,8.2,133.7c-2.56,6-5.11,15.4-6.66,26A135.76,135.76,0,0,0,.23,187.53a6,6,0,0,0,5.2,5.6c40.55,6.71,94.15,3.17,129.66.83,9.17-.61,17.14-1.14,22.92-1.37a6,6,0,0,0,5.78-6.25v-.16ZM43.7,55.42h0a38.06,38.06,0,0,1,4.52-28.33A31.26,31.26,0,0,1,67.88,13.26a41.28,41.28,0,0,1,6-.93H74C88,11.24,99.18,13.43,107,19l.36.28c7.65,5.65,12.29,15,13.33,28.14v.08h0a28.24,28.24,0,0,1-6.5,20.87c-6,7.25-15.06,11.65-22.66,13.45h0c-9.2,2.17-20.1.28-29.34-4.62C53.2,72.45,45.92,64.83,43.7,55.42Zm90.63,126.51c-33.6,2.22-83.65,5.52-122.27,0a129.44,129.44,0,0,1,1.41-20.55c1.4-9.56,3.62-17.86,5.81-23,4.66-10.9,9.63-21,17.21-28.37C43.85,102.89,54,98,69.42,97c20.38-1.37,35.56,1.51,47.23,8.17s20,17.06,26.85,30.93c5.48,11,6.76,28.11,7.86,44.8C146.28,181.14,140.59,181.52,134.33,181.93Z"/></g></g></svg>