<svg xmlns="http://www.w3.org/2000/svg" xmlns:xlink="http://www.w3.org/1999/xlink" viewBox="0 0 168.99 140.9"><defs><style>.cls-1{fill:url(#linear-gradient);}</style><linearGradient id="linear-gradient" x1="84.5" x2="84.5" y2="140.9" gradientUnits="userSpaceOnUse"><stop offset="0" stop-color="#518a7b"/><stop offset="1" stop-color="#96b9af"/></linearGradient></defs><title>my-little-montessorian-cart-icon</title><g id="Layer_2" data-name="Layer 2"><g id="Capa_1" data-name="Capa 1"><path class="cls-1" d="M168.8,12.74a13.57,13.57,0,0,1-.41-4.47,37.41,37.41,0,0,0-.19-5.15.57.57,0,0,0,0-.13,3.5,3.5,0,0,0-4-2.95c-2.72.4-7.58.69-12.9.84-5.74.17-12,.18-16.73,0A3.48,3.48,0,0,0,131,3.14c-.41,1.07-.83,2.11-1.24,3.15a56,56,0,0,0-3.69,11.6c-17.12.28-32.7-.08-48.36-.45-22.92-.54-46-1.09-74.41.39h-.2A3.48,3.48,0,0,0,0,21.67c1,9.8,4.47,24.44,7.81,38.63,1.53,6.53,3.05,13,4.28,18.72s2.19,10.86,2.61,14.7a3.49,3.49,0,0,0,3.37,3.12c12.93.39,34.67.07,55.34-.23,10.93-.16,21.55-.31,31.13-.34-.26,1.36-.62,2.88-1,4.51-13-1.3-51.79-1.06-73.05-.93-3.68,0-6.63,0-11.31,0a3.5,3.5,0,0,0-3.5,3.5,19.6,19.6,0,0,0,1,5.87,20.13,20.13,0,0,1,1,6h0a3.36,3.36,0,0,0,.26,1.31,3.49,3.49,0,0,0,4.25,2,19.23,19.23,0,0,0-.41,5.7,19,19,0,0,0,.43,2.79c1.18,5,4.82,8.88,9.28,11.25a21.82,21.82,0,0,0,10.07,2.56,17.24,17.24,0,0,0,3.89-.42l.3-.08a20.71,20.71,0,0,0,10.7-6.5A15.26,15.26,0,0,0,60,122.66v0a23.72,23.72,0,0,0-1.14-5.76L70,117l8.4.11a18.91,18.91,0,0,0-.82,7.19A17.54,17.54,0,0,0,78,127h0c0,.1,0,.2.08.3a17.73,17.73,0,0,0,9.23,11.06,21.75,21.75,0,0,0,10.06,2.56,17.64,17.64,0,0,0,4-.45,20.77,20.77,0,0,0,10.9-6.55,15.26,15.26,0,0,0,3.55-11.24v0h0a23.28,23.28,0,0,0-1.39-6.49l.86-.15a3.5,3.5,0,0,0,3.1-3.48c0-6,6.31-27.23,12.65-48.54,5.38-18.05,10.78-36.2,12.56-46.07,6,.27,14.61.55,22.39-.55h0a3.17,3.17,0,0,0,.66-.16A3.48,3.48,0,0,0,168.8,12.74Zm-157.64,31c-1.58-7-2.94-13.68-3.73-19.1,9.8-.46,19-.68,27.74-.75.19,8.77.44,15.11.75,20C27.89,43.91,19.67,43.87,11.16,43.72Zm3.48,15c-.63-2.66-1.26-5.34-1.88-8,8.14.14,16,.17,23.71.13.36,3.65.76,6.38,1.17,9.21.21,1.44.43,2.9.64,4.53-7.65.1-15.13.21-22.18.34ZM33.19,90c-4.37,0-8.4,0-11.92-.1-.74-5-2-11.27-3.58-18.07,6.83-.12,14-.22,21.37-.31C39.48,76,39.9,81.82,40.27,90Zm9-66.19c9.13,0,17.88.16,26.5.35h0c.46,7.83.51,13.48.44,19.18-8.6.19-17.29.36-26.18.44C42.6,39,42.33,32.69,42.14,23.85Zm2.42,35.23c-.38-2.58-.74-5.08-1.07-8.29,8.65-.09,17.11-.25,25.49-.44-.07,4-.13,8.5-.11,14-7.79,0-15.72.1-23.56.19C45.06,62.52,44.81,60.78,44.56,59.08ZM47.25,90c-.37-8.14-.77-14-1.18-18.49,7.61-.08,15.31-.14,22.87-.18.08,5.18.24,11.21.53,18.39C62,89.8,54.4,89.91,47.25,90Zm50.58-.65h0c-6.42.07-13.78.17-21.37.27-.29-7.17-.45-13.17-.54-18.32,8.26,0,16.25,0,23.66,0C98.9,77,98.3,83,97.83,89.32Zm4-35.52c-.46,3.42-.93,6.91-1.39,10.48-7.66,0-16,0-24.58,0,0-5.56,0-10,.12-14.11l5.74-.14c6.86-.16,13.71-.32,20.68-.46C102.19,51,102,52.39,101.81,53.8Zm1.48-11.2q-10.87.21-21.75.48l-5.47.13c.06-5.66,0-11.27-.42-18.84l1.93,0c9.08.22,18.13.43,27.49.51C104.67,30.81,104,36.65,103.29,42.6ZM51.1,129.44a13.44,13.44,0,0,1-7,4.17h0l-.11,0a13.65,13.65,0,0,1-9.22-1.48A10.69,10.69,0,0,1,29,125.5a12.51,12.51,0,0,1-.27-1.75,11.7,11.7,0,0,1,1.34-6.48c5.37-.4,12.8-.5,21.07-.46a10.7,10.7,0,0,1,.58,1.06A15.05,15.05,0,0,1,53,123.16v0A8.48,8.48,0,0,1,51.1,129.44Zm55.81,0a11.87,11.87,0,0,1-3.36,2.73,14.48,14.48,0,0,1-3.76,1.47,13.68,13.68,0,0,1-9.23-1.48,10.8,10.8,0,0,1-5.69-6.54h0l0-.11a10.13,10.13,0,0,1-.27-1.75,11.48,11.48,0,0,1,1.4-6.58c8,.06,15.29,0,21-.32.19.32.38.66.55,1a15.28,15.28,0,0,1,1.28,5.29v0A8.43,8.43,0,0,1,106.91,129.44Zm4.73-20c-.52.06-1.06.12-1.64.17h0c-6.4.59-16.4.63-27.42.53L70.1,110c-5.29-.08-10.59-.15-15.69-.17-11.22-.08-21.41.06-28.14.84-.69.08-1.35.16-2,.26a36.12,36.12,0,0,0-.88-3.61l-.14-.48,7.23-.05h1.11l17.76-.09h0c12.82,0,27,0,37.86.17h0c9.36.17,16.23.49,17.59,1a3.51,3.51,0,0,0,2.7,0A3.46,3.46,0,0,0,109.4,106a4.15,4.15,0,0,0,.2-.66l.37-1.5c1.07-4.27,2-7.94,2-11.09a3.49,3.49,0,0,0-3.5-3.5h-3.61c.48-6.33,1.08-12.3,1.75-18,5.45,0,10.48.08,14.94.14C116.84,87.29,112.68,101.92,111.64,109.48ZM124.34,62l-.75,2.52c-4.73-.08-10.17-.13-16.13-.17.42-3.26.85-6.45,1.27-9.58.24-1.77.47-3.52.71-5.26,6.06-.1,12.26-.17,18.65-.19C126.88,53.43,125.61,57.7,124.34,62Zm18.1-51.11-1.7-.07h-.15a3.47,3.47,0,0,0-3.46,3.11c-.57,5.31-3.41,16-7,28.39q-9.91,0-19.79.19c.73-5.87,1.34-11.65,1.73-17.51h1.38c5.12,0,10.36-.05,15.75-.16a3.49,3.49,0,0,0,3.41-3.14c.5-4.95,2.07-8.85,3.66-12.77l.38-1c4.49.1,9.87.07,14.86-.07,3.67-.11,7.14-.28,9.92-.5,0,.29,0,.57,0,.85,0,.9,0,1.76,0,2.61A146.59,146.59,0,0,1,142.44,10.85Z"/></g></g></svg>