<svg xmlns="http://www.w3.org/2000/svg" xmlns:xlink="http://www.w3.org/1999/xlink" viewBox="0 0 160.2 111.44"><defs><style>.cls-1{fill:url(#linear-gradient);}</style><linearGradient id="linear-gradient" x1="80.1" x2="80.1" y2="111.44" gradientUnits="userSpaceOnUse"><stop offset="0" stop-color="#518a7b"/><stop offset="1" stop-color="#96b9af"/></linearGradient></defs><title>my-little-montessorian-contact-icon</title><g id="Layer_2" data-name="Layer 2"><g id="Capa_1" data-name="Capa 1"><path class="cls-1" d="M159.57,3.14A3.38,3.38,0,0,0,158.23,2a3.47,3.47,0,0,0-1.14-.56,4,4,0,0,0-1-.13H156C136.39,2.56,111,1.76,86.08,1,54.47,0,23.61-1,5.81,2.19A3.46,3.46,0,0,0,3,5.37h0C2.48,11.86.44,49.8.05,77.84-.17,94,.28,107.15,2.11,109.89A3.48,3.48,0,0,0,6.78,111h0c4.6-2.73,38-4.84,71.68-5.65s67.06-.29,72.16,2.24a3.49,3.49,0,0,0,4.68-1.58,3.74,3.74,0,0,0,.3-.89c2.28-11.73,1.86-28.95,1.44-46.55-.46-18.89-.92-38.22,2-50.78A3.5,3.5,0,0,0,159.57,3.14ZM85.86,7.94c21.1.67,42.55,1.35,60.59.81-9.16,7.91-18,17.92-27.14,28.15-5.18,5.84-10.42,11.74-15.78,17.33A181.5,181.5,0,0,1,87.05,69.65c-1.64,1.19-18.32-12-35.61-26.45-16.3-13.67-32.65-28.68-38.58-35C30.54,6.19,57.9,7.05,85.86,7.94ZM7,77.92C7.32,56.51,8.61,29,9.39,14.64,16.65,22,31.88,35.92,47,48.56l.39.33a2.37,2.37,0,0,0,.06.52c1,4.66-9.19,14.57-19.94,25.07-7.56,7.39-15.4,15-20.44,22.24C6.91,91.78,6.92,85.24,7,77.92ZM78.3,98.34c-26.7.64-53.5,2.23-66.95,4.46,4.29-7,12.8-15.32,21-23.31C41.79,70.25,50.84,61.41,53.57,54,70.7,67.81,86.74,78.5,91.15,75.31l.24-.19,0,0a195.83,195.83,0,0,0,18.94-17.91c2.64,1.89,9.81,9.74,17.28,18.58,7.24,8.57,14.47,17.93,18.05,23.83C132.11,98,105.12,97.69,78.3,98.34ZM150.08,58.7c.3,12.46.59,24.72-.08,34.73a265.25,265.25,0,0,0-17-22.17c-6.69-7.92-13.57-15.18-18.14-18.88,3.28-3.59,6.51-7.22,9.71-10.83,8.88-10,17.58-19.78,26.34-27.39C149.31,26.85,149.7,42.92,150.08,58.7Z"/></g></g></svg>